<svg width="60" height="60" viewBox="0 0 60 60" fill="none" xmlns="http://www.w3.org/2000/svg">
  <path
    d="M30 60C46.5685 60 60 46.5685 60 30C60 13.4315 46.5685 0 30 0C13.4315 0 0 13.4315 0 30C0 46.5685 13.4315 60 30 60Z"
    fill="white" />
  <path
    d="M40.1319 44.2021L14.5361 30.3309V18.7299C14.5358 17.9952 14.7264 17.2731 15.0893 16.6342C15.4521 15.9954 15.9747 15.4618 16.6058 15.0857C17.237 14.7097 17.955 14.5041 18.6895 14.489C19.424 14.474 20.1499 14.6501 20.7959 15L46.3917 28.8711V40.4753C46.3924 41.21 46.2019 41.9323 45.8391 42.5712C45.4762 43.2102 44.9535 43.7438 44.3221 44.1196C43.6908 44.4955 42.9726 44.7007 42.238 44.7152C41.5033 44.7296 40.7776 44.5528 40.1319 44.2021Z"
    fill="url(#paint0_linear_263_1817)" />
  <path
    d="M46.3917 18.7825C46.392 18.0478 46.2014 17.3257 45.8386 16.6868C45.4757 16.048 44.9531 15.5144 44.322 15.1383C43.6908 14.7623 42.9728 14.5566 42.2383 14.5416C41.5038 14.5266 40.778 14.7027 40.132 15.0526L32.7835 18.9031L46.3917 26.5206V18.7825Z"
    fill="url(#paint1_linear_263_1817)" />
  <path
    d="M14.5361 40.568C14.5354 41.3028 14.7259 42.0251 15.0887 42.664C15.4516 43.303 15.9743 43.8365 16.6057 44.2124C17.237 44.5883 17.9552 44.7935 18.6898 44.808C19.4245 44.8224 20.1502 44.6456 20.7959 44.2948L28.1443 40.4474L14.5361 32.8299V40.568Z"
    fill="url(#paint2_linear_263_1817)" />
  <defs>
    <linearGradient id="paint0_linear_263_1817" x1="19.9856" y1="13.1227" x2="39.7794" y2="44.2577"
      gradientUnits="userSpaceOnUse">
      <stop stop-color="#17B6CC" />
      <stop offset="1" stop-color="#A626CC" />
    </linearGradient>
    <linearGradient id="paint1_linear_263_1817" x1="10133.9" y1="3618.33" x2="10855.6" y2="4907.74"
      gradientUnits="userSpaceOnUse">
      <stop stop-color="#8F3DCC" />
      <stop offset="1" stop-color="#A626CC" />
    </linearGradient>
    <linearGradient id="paint2_linear_263_1817" x1="9087.83" y1="4211.55" x2="9809.45" y2="5500.91"
      gradientUnits="userSpaceOnUse">
      <stop stop-color="#5C70CC" />
      <stop offset="1" stop-color="#A626CC" />
    </linearGradient>
  </defs>
</svg>