<svg width="60" height="60" viewBox="0 0 60 60" fill="none" xmlns="http://www.w3.org/2000/svg">
  <circle cx="30" cy="30" r="30" fill="white" />
  <path
    d="M40.0858 15.6498L33.2924 25.7361C33.1956 25.8814 33.1547 26.0567 33.1773 26.2298C33.1998 26.4029 33.2843 26.5619 33.415 26.6775C33.5458 26.7932 33.714 26.8575 33.8885 26.8587C34.063 26.8599 34.2321 26.7978 34.3644 26.684L41.0517 20.8837C41.0909 20.8486 41.1395 20.8257 41.1915 20.8178C41.2434 20.8099 41.2966 20.8172 41.3445 20.839C41.3923 20.8608 41.4328 20.896 41.461 20.9404C41.4892 20.9848 41.5038 21.0365 41.5031 21.0891V39.2484C41.5031 39.304 41.486 39.3583 41.4541 39.4038C41.4222 39.4493 41.377 39.4839 41.3248 39.5029C41.2725 39.5219 41.2157 39.5243 41.162 39.5099C41.1083 39.4954 41.0603 39.4648 41.0247 39.4222L20.8115 15.2255C20.4863 14.8416 20.0815 14.5331 19.6251 14.3215C19.1687 14.1098 18.6717 14.0001 18.1686 14H17.4622C16.5439 14 15.6633 14.3648 15.014 15.014C14.3648 15.6633 14 16.5439 14 17.4622V43.0378C14 43.9561 14.3648 44.8367 15.014 45.486C15.6633 46.1352 16.5439 46.5 17.4622 46.5C18.0542 46.5002 18.6364 46.3486 19.1532 46.0598C19.67 45.7709 20.1041 45.3545 20.4142 44.8502L27.2076 34.7639C27.3044 34.6186 27.3453 34.4433 27.3227 34.2702C27.3002 34.0971 27.2157 33.9381 27.085 33.8225C26.9542 33.7068 26.786 33.6425 26.6115 33.6413C26.437 33.6401 26.2679 33.7022 26.1356 33.816L19.4483 39.6163C19.4091 39.6514 19.3605 39.6743 19.3085 39.6822C19.2566 39.6901 19.2034 39.6828 19.1555 39.661C19.1077 39.6392 19.0672 39.604 19.039 39.5596C19.0108 39.5152 18.9962 39.4635 18.9969 39.4109V21.247C18.9969 21.1915 19.014 21.1372 19.0459 21.0917C19.0778 21.0462 19.123 21.0116 19.1752 20.9926C19.2275 20.9736 19.2843 20.9712 19.338 20.9856C19.3917 21 19.4397 21.0306 19.4753 21.0733L39.6863 45.2745C40.0114 45.6584 40.4162 45.9669 40.8727 46.1785C41.3291 46.3902 41.8261 46.4999 42.3292 46.5H43.0356C43.4904 46.5003 43.9409 46.411 44.3612 46.2371C44.7815 46.0633 45.1634 45.8083 45.4852 45.4868C45.8069 45.1652 46.0621 44.7835 46.2362 44.3633C46.4104 43.9431 46.5 43.4927 46.5 43.0378V17.4622C46.5 16.5439 46.1352 15.6633 45.486 15.014C44.8367 14.3648 43.9561 14 43.0378 14C42.4458 13.9998 41.8636 14.1514 41.3468 14.4402C40.83 14.7291 40.3959 15.1455 40.0858 15.6498Z"
    fill="black" />
</svg>