<svg width="300" height="300" viewBox="0 0 300 300" fill="none" xmlns="http://www.w3.org/2000/svg">
<rect width="300" height="300" fill="white"/>
<path d="M264.752 59.2452L169.053 5.06144C163.176 1.7431 156.547 0 149.805 0C143.062 0 136.433 1.7431 130.556 5.06144L34.722 59.2452C28.7521 62.5902 23.7779 67.4728 20.3115 73.39C16.8451 79.3072 15.0117 86.0453 15.0003 92.9105V200.089C14.9727 206.959 16.7961 213.709 20.2775 219.623C23.7601 225.562 28.743 230.472 34.722 233.856L77.0407 257.636V146.551C77.0413 132.202 81.318 118.182 89.3202 106.295C97.3512 94.3521 108.721 85.062 121.998 79.5939C135.31 74.1137 149.933 72.6828 164.048 75.4792C178.164 78.2756 191.149 85.1759 201.392 95.3225C208.988 102.875 214.809 112.035 218.43 122.135C222.05 132.234 223.379 143.019 222.319 153.7C221.259 164.381 217.837 174.69 212.302 183.874C206.768 193.057 199.261 200.884 190.33 206.781C178.288 214.767 164.168 219.009 149.737 218.977H102.784C102.34 218.984 101.912 219.14 101.566 219.419C101.236 219.707 101.02 220.105 100.957 220.54C100.88 220.974 100.964 221.421 101.194 221.797C101.434 222.165 101.792 222.441 102.209 222.578C116.639 227.724 129.137 237.214 137.999 249.755C146.811 262.209 151.54 277.11 151.53 292.388V293C157.459 292.701 163.243 291.051 168.444 288.176L264.278 233.992C270.248 230.607 275.219 225.696 278.689 219.758C282.165 213.841 283.999 207.096 284 200.225V92.9445C284.02 86.1364 282.246 79.4442 278.858 73.5471C275.483 67.6223 270.619 62.6906 264.752 59.2452V59.2452Z" fill="url(#paint0_linear_101_27)"/>
<defs>
<linearGradient id="paint0_linear_101_27" x1="51.433" y1="27.5503" x2="238.861" y2="252.952" gradientUnits="userSpaceOnUse">
<stop stop-color="#D79243"/>
<stop offset="0.36" stop-color="#E28A77"/>
<stop offset="0.64" stop-color="#C849C2"/>
<stop offset="1" stop-color="#5620DD"/>
</linearGradient>
</defs>
</svg>
