<svg xmlns="http://www.w3.org/2000/svg" xmlns:xlink="http://www.w3.org/1999/xlink" fill="none" version="1.1" width="18"
  height="18" viewBox="0 0 18 18">
  <defs>
    <clipPath id="master_svg0_34_02241">
      <rect x="0" y="0" width="18" height="18" rx="0" />
    </clipPath>
  </defs>
  <g clip-path="url(#master_svg0_34_02241)">
    <g>
      <ellipse cx="9" cy="9" rx="9" ry="9" fill="#32E373" fill-opacity="1" />
    </g>
    <g>
      <path
        d="M8.99754,4.764C9.418379999999999,4.762669,9.80345,5.0006,9.99072,5.37767L13.11418,11.62767C13.48394,12.36633,12.9469,13.236,12.121,13.236L5.87408,13.236C5.0484100000000005,13.2359,4.511628,12.36635,4.881233,11.62767L8.00436,5.37767C8.19163,5.0006,8.576699999999999,4.762669,8.99754,4.764ZM8.99754,4C8.28781,3.9999294499,7.63894,4.400981,7.32136,5.036L4.197903,11.286C3.574286,12.53266,4.480523,14,5.87408,14L12.121,14C13.51432,13.99989,14.4203,12.53266,13.79684,11.286L10.67371,5.036C10.35625,4.401051,9.70738,4,8.99754,4Z"
        fill="#FFFFFF" fill-opacity="1" />
    </g>
  </g>
</svg>
