<svg width="194" height="43" viewBox="0 0 194 43" fill="none" xmlns="http://www.w3.org/2000/svg">
  <g clip-path="url(#clip0_19_730)">
    <path
      d="M139.056 10.7084C141.221 11.2602 142.142 11.7691 143.793 13.2741C146.684 15.9659 147.756 19.8875 146.706 23.9581C145.506 28.6638 141.264 31.7798 136.207 31.6953C135.492 31.6816 134.777 31.639 134.066 31.5677C133.015 31.3986 131.193 30.636 130.079 29.8936C124.616 26.2902 123.886 18.0643 128.622 13.4432C130.071 12.0022 131.911 11.0148 133.915 10.6023C135.886 10.201 137.106 10.2211 139.056 10.7084ZM94.0182 10.7084L95.7757 10.7715L97.5317 10.836L97.5964 16.7714C97.6826 25.4431 97.3176 27.3709 95.175 29.4908C93.6115 31.0173 92.2176 31.5476 89.3895 31.6322C88.2111 31.6752 86.9465 31.6107 86.5614 31.5261C83.3898 30.7206 81.2257 28.261 80.6911 24.8898C80.5833 24.1488 80.5187 20.693 80.5402 17.1957L80.6049 10.836H84.0336L84.14 17.9367C84.2478 24.9959 84.2478 25.0389 84.7838 26.0995C86.4119 29.3217 91.5968 29.3417 93.3111 26.1425L93.8888 25.0389L94.0182 10.7084ZM67.6198 10.7299L68.0495 11.8536C68.2852 12.447 69.2494 14.9496 70.2137 17.4078C71.1765 19.866 72.2269 22.5793 72.5704 23.4493C72.8909 24.3179 73.7057 26.3962 74.3696 28.0503C75.0335 29.7029 75.5695 31.1234 75.5695 31.1864C75.5695 31.2509 74.7561 31.2925 73.7703 31.2925C72.0128 31.2925 71.9697 31.271 71.7556 30.7192C71.6263 30.3809 70.3416 27.0742 68.9275 23.3432C65.6281 14.6945 65.6496 14.7576 65.3708 14.7576C65.2415 14.7576 65.0489 15.0758 64.921 15.457C64.7917 15.8168 63.8921 18.1918 62.9279 20.693C61.9651 23.1942 60.6574 26.5869 60.0351 28.218L58.9214 31.1864L57.1855 31.2509C55.7068 31.2939 55.428 31.2509 55.428 30.9743C55.428 30.593 62.9063 11.3864 63.2067 11.0051C63.336 10.8145 64.0847 10.7299 65.5203 10.7299H67.6198ZM109.36 10.7299C114.908 10.7299 116.151 10.9205 117.738 12.0658C118.294 12.4671 118.959 13.2311 119.345 13.889C119.902 14.8851 120.03 15.3295 120.095 16.856C120.158 18.3395 120.095 18.8913 119.73 19.8875C119.152 21.3495 117.844 22.6223 116.302 23.1741C115.702 23.3848 115.21 23.5969 115.21 23.6614C115.21 23.7245 116.473 25.3571 117.995 27.3078C119.537 29.2572 120.78 30.9327 120.78 31.0589C120.78 31.3771 117.738 31.3556 117.073 31.0589C116.774 30.9327 115.295 29.2156 113.796 27.2433L111.031 23.6829L109.488 23.6614H107.924V31.2925H104.496L104.539 26.0565L104.603 20.7991L109.531 20.693C113.088 20.6084 114.609 20.5024 115.016 20.2917C116.58 19.5062 117.223 17.0466 116.238 15.6262C115.252 14.1642 114.737 14.0366 110.13 13.909L105.996 13.803L105.332 13.1465C104.907 12.7408 104.635 12.2019 104.56 11.62L104.431 10.7299H109.36ZM157.271 10.7729C162.369 10.836 162.733 10.8575 163.74 11.3233C166.011 12.3625 167.232 14.2057 167.383 16.7929C167.554 20.0566 166.162 22.3041 163.377 23.2157C162.926 23.3647 162.562 23.5769 162.562 23.6829C162.562 23.7876 163.783 25.4201 165.262 27.3078C166.739 29.1941 168.004 30.8682 168.069 31.0388C168.241 31.4616 164.512 31.314 163.954 30.8682C163.74 30.6991 162.369 29.0035 160.891 27.1158L158.234 23.6614H156.776C155.641 23.6614 155.298 23.746 155.191 23.9997C155.127 24.1903 155.062 25.9075 155.062 27.8167V31.2925H151.635V26.3332C151.635 23.5969 151.698 21.2233 151.764 21.0327C151.87 20.736 152.513 20.693 156.541 20.693C161.747 20.693 162.476 20.5239 163.44 19.188C164.125 18.2348 164.125 16.3901 163.462 15.457C162.584 14.2487 161.812 14.038 157.419 13.909C154.184 13.8245 153.328 13.7399 152.878 13.4432C152.191 12.9989 151.57 11.7046 151.743 11.1327C151.892 10.7084 151.998 10.7084 157.269 10.7715L157.271 10.7729ZM185.746 10.836L186.967 13.909C187.61 15.4962 188.246 17.0863 188.874 18.6792C189.238 19.6108 190.459 22.7498 191.573 25.6323C192.708 28.5161 193.631 30.9743 193.631 31.0804C193.631 31.2079 192.859 31.2925 191.852 31.2925H190.096L188.509 27.1158C185.146 18.2764 183.796 14.8636 183.603 14.8006C183.411 14.7361 182.939 15.8383 180.689 21.6476C180.304 22.7083 179.318 25.208 178.546 27.2233C177.774 29.2156 177.132 30.9743 177.132 31.0804C177.132 31.2079 176.382 31.2925 175.311 31.2925C174.261 31.2925 173.489 31.2065 173.489 31.0804C173.489 30.9327 179.039 16.6023 180.968 11.7891L181.331 10.836H185.746ZM136.185 13.6969C131.108 13.6969 127.787 18.4255 129.351 23.4708C129.757 24.8052 129.993 25.1879 131.15 26.3317C132.242 27.4139 132.736 27.7307 133.872 28.0919C134.798 28.4003 135.776 28.5234 136.751 28.4543C137.725 28.3852 138.676 28.1252 139.549 27.6891C143.577 25.7398 144.863 20.5654 142.314 16.7284C140.985 14.7361 138.885 13.6969 136.185 13.6969Z"
      fill="#2F2F2F" />
    <path
      d="M21.5556 3.2852C22.4454 3.28239 23.3183 3.52807 24.0753 3.99441C24.8324 4.46076 25.4435 5.12916 25.8394 5.92397L39.3117 32.799C39.6772 33.5274 39.85 34.3369 39.8136 35.1507C39.7771 35.9645 39.5327 36.7555 39.1034 37.4485C38.6741 38.1415 38.0744 38.7135 37.361 39.1101C36.6477 39.5068 35.8445 39.7149 35.0279 39.7148H8.08341C7.26683 39.7147 6.46384 39.5064 5.75072 39.1096C5.03759 38.7128 4.438 38.1408 4.00891 37.4478C3.57983 36.7549 3.33549 35.964 3.2991 35.1504C3.26272 34.3367 3.4355 33.5273 3.80103 32.799L17.2718 5.92397C17.6678 5.12916 18.2788 4.46076 19.0359 3.99441C19.793 3.52807 20.6658 3.28239 21.5556 3.2852ZM21.5556 3.98341e-08C20.0547 -0.000148747 18.5834 0.416515 17.3065 1.20332C16.0296 1.99012 14.9975 3.11599 14.3259 4.4548L0.853672 31.3298C0.23701 32.5591 -0.0543155 33.9252 0.00737051 35.2984C0.0690566 36.6716 0.481705 38.0062 1.20612 39.1756C1.93053 40.3449 2.94265 41.3101 4.14633 41.9795C5.35001 42.6488 6.70529 43.0001 8.08341 43H35.0279C36.4058 42.9999 37.7609 42.6484 38.9644 41.979C40.1679 41.3095 41.1798 40.3443 41.9041 39.175C42.6283 38.0057 43.0408 36.6711 43.1025 35.298C43.1641 33.925 42.8728 32.559 42.2561 31.3298L28.7854 4.4548C28.1138 3.11599 27.0817 1.99012 25.8048 1.20332C24.5279 0.416515 23.0565 -0.000148747 21.5556 3.98341e-08Z"
      fill="#0EBA53" />
  </g>
  <defs>
    <clipPath id="clip0_19_730">
      <rect width="194" height="43" fill="white" />
    </clipPath>
  </defs>
</svg>
