<svg width="139" height="22" viewBox="0 0 139 22" fill="none" xmlns="http://www.w3.org/2000/svg">
  <path
    d="M83.6284 0.387964C85.7925 0.939797 86.7137 1.44863 88.3648 2.95363C91.2562 5.64543 92.3282 9.56703 91.2777 13.6377C90.0778 18.3433 85.8357 21.4594 80.7787 21.3748C80.0636 21.3611 79.3493 21.3186 78.6375 21.2473C77.5871 21.0781 75.7649 20.3156 74.6512 19.5731C69.1876 15.9697 68.4576 7.74383 73.194 3.12276C74.6431 1.68174 76.4827 0.694343 78.4867 0.281897C80.4583 -0.119436 81.6783 -0.0993693 83.6284 0.387964ZM38.5902 0.387964L40.3477 0.45103L42.1038 0.51553L42.1684 6.45096C42.2546 15.1226 41.8896 17.0505 39.747 19.1704C38.1835 20.6969 36.7896 21.2272 33.9615 21.3118C32.7831 21.3548 31.5185 21.2903 31.1334 21.2057C27.9619 20.4002 25.7977 17.9406 25.2631 14.5694C25.1553 13.8283 25.0907 10.3726 25.1122 6.87523L25.1769 0.51553H28.6057L28.712 7.61626C28.8198 14.6754 28.8198 14.7184 29.3558 15.7791C30.984 19.0012 36.1688 19.0213 37.8832 15.8221L38.4609 14.7184L38.5902 0.387964ZM12.1918 0.409464L12.6215 1.5332C12.8572 2.1266 13.8214 4.6292 14.7857 7.08736C15.7485 9.54553 16.799 12.2588 17.1424 13.1289C17.4629 13.9975 18.2777 16.0758 18.9416 17.7299C19.6055 19.3825 20.1415 20.8029 20.1415 20.866C20.1415 20.9305 19.3281 20.9721 18.3423 20.9721C16.5848 20.9721 16.5417 20.9506 16.3276 20.3987C16.1983 20.0605 14.9136 16.7538 13.4995 13.0228C10.2001 4.37406 10.2216 4.43713 9.94286 4.43713C9.81353 4.43713 9.62096 4.75533 9.49307 5.1366C9.36373 5.49636 8.46415 7.8714 7.4999 10.3726C6.53708 12.8737 5.22938 16.2664 4.60714 17.8976L3.49344 20.866L1.7575 20.9305C0.278785 20.9735 0 20.9305 0 20.6539C0 20.2726 7.47834 1.06593 7.77868 0.684664C7.90802 0.49403 8.65672 0.409464 10.0923 0.409464H12.1918ZM53.932 0.409464C59.4804 0.409464 60.7234 0.600097 62.3099 1.74533C62.8661 2.14666 63.5314 2.91063 63.9165 3.56853C64.4741 4.5647 64.602 5.00903 64.6667 6.53553C64.7299 8.01903 64.6667 8.57086 64.3017 9.56703C63.724 11.029 62.4163 12.3018 60.8743 12.8537C60.2736 13.0644 59.7822 13.2765 59.7822 13.341C59.7822 13.4041 61.0453 15.0366 62.5672 16.9874C64.1091 18.9367 65.3521 20.6123 65.3521 20.7384C65.3521 21.0566 62.3099 21.0351 61.6446 20.7384C61.3457 20.6123 59.867 18.8952 58.3681 16.9229L55.6033 13.3625L54.0599 13.341H52.4964V20.9721H49.0676L49.1107 15.7361L49.1754 10.4786L54.103 10.3726C57.6597 10.288 59.1815 10.1819 59.5882 9.97123C61.1517 9.18576 61.7955 6.72616 60.8097 5.30573C59.8239 3.84373 59.3094 3.71616 54.7023 3.5886L50.5679 3.48253L49.904 2.82606C49.4792 2.42032 49.2068 1.8815 49.1323 1.29956L49.003 0.409464H53.932ZM101.843 0.452463C106.941 0.51553 107.305 0.537031 108.312 1.00286C110.583 2.04203 111.804 3.8853 111.955 6.47246C112.126 9.73616 110.734 11.9836 107.949 12.8952C107.498 13.0443 107.134 13.2564 107.134 13.3625C107.134 13.4671 108.355 15.0997 109.834 16.9874C111.311 18.8737 112.576 20.5478 112.641 20.7184C112.813 21.1412 109.084 20.9936 108.526 20.5478C108.312 20.3787 106.941 18.683 105.463 16.7953L102.806 13.341H101.348C100.213 13.341 99.8698 13.4256 99.7634 13.6793C99.6988 13.8699 99.6341 15.587 99.6341 17.4962V20.9721H96.2068V16.0127C96.2068 13.2765 96.27 10.9029 96.3361 10.7123C96.4424 10.4156 97.0848 10.3726 101.113 10.3726C106.319 10.3726 107.048 10.2034 108.012 8.86756C108.697 7.9144 108.697 6.0697 108.034 5.1366C107.156 3.9283 106.384 3.7176 101.991 3.5886C98.7561 3.50403 97.8996 3.41946 97.4498 3.12276C96.7629 2.67843 96.1421 1.38413 96.3145 0.812231C96.464 0.387964 96.5703 0.387964 101.841 0.45103L101.843 0.452463ZM130.318 0.51553L131.539 3.5886C132.182 5.1758 132.818 6.76586 133.446 8.35873C133.81 9.2904 135.031 12.4294 136.145 15.3118C137.28 18.1957 138.203 20.6539 138.203 20.7599C138.203 20.8875 137.431 20.9721 136.424 20.9721H134.668L133.081 16.7953C129.718 7.95596 128.368 4.5432 128.175 4.48013C127.983 4.41563 127.511 5.51786 125.261 11.3272C124.876 12.3878 123.89 14.8876 123.118 16.9028C122.346 18.8952 121.704 20.6539 121.704 20.7599C121.704 20.8875 120.954 20.9721 119.883 20.9721C118.833 20.9721 118.061 20.8861 118.061 20.7599C118.061 20.6123 123.611 6.28183 125.54 1.4687L125.903 0.51553H130.318ZM80.7572 3.37646C75.6801 3.37646 72.3591 8.10503 73.9226 13.1504C74.3293 14.4848 74.565 14.8675 75.7218 16.0113C76.8139 17.0935 77.3083 17.4102 78.4435 17.7714C79.37 18.0798 80.3484 18.203 81.3226 18.1339C82.2969 18.0648 83.2479 17.8048 84.1213 17.3687C88.1493 15.4193 89.4354 10.245 86.8861 6.40796C85.5569 4.41563 83.4574 3.37646 80.7572 3.37646Z"
    fill="white" />
</svg>
