<svg xmlns="http://www.w3.org/2000/svg" xmlns:xlink="http://www.w3.org/1999/xlink" fill="none" version="1.1"
  width="11.826095581054688" height="7" viewBox="0 0 11.826095581054688 7">
  <g style="mix-blend-mode:passthrough" transform="matrix(-1,0,0,1,23.652191162109375,0)">
    <path
      d="M12.026381581054688,3.03134C12.026381581054688,3.03134,15.021925581054688,0.119658,15.021925581054688,0.119658C15.186065581054688,-0.039886,15.447665581054688,-0.039886,15.611805581054687,0.119658C15.775945581054687,0.279202,15.775945581054687,0.533476,15.611805581054687,0.69302C15.611805581054687,0.69302,13.144585581054688,3.09117,13.144585581054688,3.09117C13.144585581054688,3.09117,23.231595581054687,3.09117,23.231595581054687,3.09117C23.472695581054687,3.09117,23.652195581054688,3.26068,23.652195581054688,3.5C23.652195581054688,3.73433,23.477795581054686,3.90883,23.231595581054687,3.90883C23.231595581054687,3.90883,13.144585581054688,3.90883,13.144585581054688,3.90883C13.144585581054688,3.90883,15.611805581054687,6.30698,15.611805581054687,6.30698C15.775945581054687,6.46652,15.775945581054687,6.7208,15.611805581054687,6.88034C15.529735581054688,6.96011,15.422015581054687,7,15.319425581054688,7C15.216845581054688,7,15.109125581054688,6.96011,15.027055581054688,6.88034C15.027055581054688,6.88034,12.031511581054687,3.96866,12.031511581054687,3.96866C11.898147881054687,3.83903,11.826336967054688,3.6745,11.826336967054688,3.5C11.821207611054687,3.3255,11.898147981054688,3.16097,12.026381581054688,3.03134Z"
      fill="#FFFFFF" fill-opacity="1" />
  </g>
</svg>
