<svg xmlns="http://www.w3.org/2000/svg" xmlns:xlink="http://www.w3.org/1999/xlink" fill="none" version="1.1" width="131"
  height="22" viewBox="0 0 131 22">
  <defs>
    <clipPath id="master_svg0_413_0052">
      <rect x="0" y="0" width="18.501625061035156" height="22" rx="0" />
    </clipPath>
    <clipPath id="master_svg1_413_0039">
      <rect x="25.163843154907227" y="5.254458904266357" width="105.8361587524414" height="12.760828018188477" rx="0" />
    </clipPath>
  </defs>
  <g style="opacity:0.6000000238418579;mix-blend-mode:passthrough">
    <g style="mix-blend-mode:passthrough">
      <g style="mix-blend-mode:passthrough" clip-path="url(#master_svg0_413_0052)">
        <g style="mix-blend-mode:passthrough">
          <path
            d="M0,5.4884033203125C0,5.4884033203125,4.56023,8.173393320312499,4.56023,8.173393320312499C4.56023,8.173393320312499,4.56023,13.7421033203125,4.56023,13.7421033203125C4.56023,13.7421033203125,0,11.0528833203125,0,11.0528833203125C0,11.0528833203125,0,5.4884033203125,0,5.4884033203125Z"
            fill="#62AEFE" fill-opacity="1" />
        </g>
        <g style="mix-blend-mode:passthrough">
          <path
            d="M0,11.0528564453125C0,11.0528564453125,4.56023,13.7420764453125,4.56023,13.7420764453125C4.56023,13.7420764453125,4.56023,19.3107864453125,4.56023,19.3107864453125C4.56023,19.3107864453125,0,16.6215664453125,0,16.6215664453125C0,16.6215664453125,0,11.0528564453125,0,11.0528564453125Z"
            fill="#5C65A5" fill-opacity="1" />
        </g>
        <g style="mix-blend-mode:passthrough">
          <path
            d="M4.56005859375,8.17333984375C4.56005859375,8.17333984375,9.116148593750001,10.86255984375,9.116148593750001,10.86255984375C9.116148593750001,10.86255984375,9.116148593750001,16.43126984375,9.116148593750001,16.43126984375C9.116148593750001,16.43126984375,4.56005859375,13.74204984375,4.56005859375,13.74204984375C4.56005859375,13.74204984375,4.56005859375,8.17333984375,4.56005859375,8.17333984375Z"
            fill="#564788" fill-opacity="1" />
        </g>
        <g style="mix-blend-mode:passthrough">
          <path
            d="M4.56005859375,13.7420654296875C4.56005859375,13.7420654296875,9.116148593750001,16.4312854296875,9.116148593750001,16.4312854296875C9.116148593750001,16.4312854296875,9.116148593750001,21.9999954296875,9.116148593750001,21.9999954296875C9.116148593750001,21.9999954296875,4.56005859375,19.3107754296875,4.56005859375,19.3107754296875C4.56005859375,19.3107754296875,4.56005859375,13.7420654296875,4.56005859375,13.7420654296875Z"
            fill="#51328E" fill-opacity="1" />
        </g>
        <g style="mix-blend-mode:passthrough">
          <path
            d="M18.236743671875,10.849853515625C18.236743671875,10.849853515625,13.676513671875,13.539073515625,13.676513671875,13.539073515625C13.676513671875,13.539073515625,13.676513671875,19.107783515625,13.676513671875,19.107783515625C13.676513671875,19.107783515625,18.236743671875,16.418563515625,18.236743671875,16.418563515625C18.236743671875,16.418563515625,18.236743671875,10.849853515625,18.236743671875,10.849853515625Z"
            fill="#2F2B48" fill-opacity="1" />
        </g>
        <g style="mix-blend-mode:passthrough">
          <path
            d="M9.116455078125,16.4312744140625C9.116455078125,16.4312744140625,9.116455078125,21.9999844140625,9.116455078125,21.9999844140625C9.116455078125,21.9999844140625,13.676685078125,19.1078044140625,13.676685078125,19.1078044140625C13.676685078125,19.1078044140625,9.116455078125,16.4312744140625,9.116455078125,16.4312744140625Z"
            fill="#48297B" fill-opacity="1" />
        </g>
        <g style="mix-blend-mode:passthrough">
          <path
            d="M13.676685078125,19.107783515625C13.676685078125,19.107783515625,9.116455078125,16.418563515625,9.116455078125,16.418563515625C9.116455078125,16.418563515625,9.116455078125,10.849853515625,9.116455078125,10.849853515625C9.116455078125,10.849853515625,13.676685078125,13.539073515625,13.676685078125,13.539073515625C13.676685078125,13.539073515625,13.676685078125,19.107783515625,13.676685078125,19.107783515625Z"
            fill="#494661" fill-opacity="1" />
        </g>
        <g style="mix-blend-mode:passthrough">
          <path
            d="M0,5.484100625C0,5.484100625,4.7092,2.744140625,4.7092,2.744140625C4.7092,2.744140625,9.23633,5.412220625,9.23633,5.412220625C9.23633,5.412220625,4.56023,8.173310625,4.56023,8.173310625C4.56023,8.173310625,0,5.484100625,0,5.484100625Z"
            fill="#BF9AD2" fill-opacity="1" />
        </g>
        <g style="mix-blend-mode:passthrough">
          <path
            d="M4.56005859375,8.1607186328125C4.56005859375,8.1607186328125,9.22041859375,5.4073486328125,9.22041859375,5.4073486328125C9.22041859375,5.4073486328125,13.84582859375,8.0955486328125,13.84582859375,8.0955486328125C13.84582859375,8.0955486328125,9.116148593750001,10.8499386328125,9.116148593750001,10.8499386328125C9.116148593750001,10.8499386328125,4.56005859375,8.1607186328125,4.56005859375,8.1607186328125Z"
            fill="#D0B5E0" fill-opacity="1" />
        </g>
        <g style="mix-blend-mode:passthrough">
          <path
            d="M4.709228515625,2.74419C4.709228515625,2.74419,9.418428515625,0,9.418428515625,0C9.418428515625,0,13.936718515625,2.6882,13.936718515625,2.6882C13.936718515625,2.6882,9.220618515624999,5.4073,9.220618515624999,5.4073C9.220618515624999,5.4073,4.709228515625,2.74419,4.709228515625,2.74419Z"
            fill="#A676BF" fill-opacity="1" />
        </g>
        <g style="mix-blend-mode:passthrough">
          <path
            d="M9.220703125,5.407332421875C9.220703125,5.407332421875,13.936803125,2.688232421875,13.936803125,2.688232421875C13.936803125,2.688232421875,18.501733125,5.344642421875,18.501733125,5.344642421875C18.501733125,5.344642421875,13.825633125,8.105742421875,13.825633125,8.105742421875C13.825633125,8.105742421875,9.220703125,5.407332421875,9.220703125,5.407332421875Z"
            fill="#6649A9" fill-opacity="1" />
        </g>
        <g style="mix-blend-mode:passthrough">
          <path
            d="M13.676685078125,13.539112890624999C13.676685078125,13.539112890624999,9.116455078125,10.849902890625,9.116455078125,10.849902890625C9.116455078125,10.849902890625,13.825655078125,8.105712890625,13.825655078125,8.105712890625C13.825655078125,8.105712890625,18.236915078125,10.849902890625,18.236915078125,10.849902890625C18.236915078125,10.849902890625,13.676685078125,13.539112890624999,13.676685078125,13.539112890624999Z"
            fill="#5C5A6F" fill-opacity="1" />
        </g>
      </g>
    </g>
    <g style="mix-blend-mode:passthrough" clip-path="url(#master_svg1_413_0039)">
      <g style="mix-blend-mode:passthrough">
        <path
          d="M25.163843154907227,12.750248904266357C25.165234014907227,12.053428904266358,25.295738154907227,11.363858904266358,25.547767154907227,10.721638904266356C25.799796154907227,10.079408904266357,26.168323154907227,9.497348904266357,26.631913154907227,9.009298904266357C27.095503154907227,8.521238904266358,27.644913154907226,8.136934904266358,28.248183154907228,7.878719904266357C28.851463154907226,7.620504904266357,29.49656315490723,7.493535504266357,30.145993154907227,7.505194920266358C31.923463154907225,7.505194920266358,33.57424315490722,8.388697904266358,34.41640315490723,10.303618904266358C33.92171315490722,10.602358904266357,33.36748315490723,10.769518904266357,32.80017315490723,10.791078904266357C32.232853154907225,10.812638904266358,31.668983154907227,10.687978904266357,31.155833154907228,10.427548904266358C30.841493154907226,10.262648904266356,30.495903154907225,10.177818904266358,30.145993154907227,10.179688904266357C29.836183154907225,10.180128904266358,29.529593154907225,10.246978904266356,29.244203154907225,10.376318904266357C28.958823154907225,10.505648904266357,28.700403154907228,10.694868904266357,28.484133154907227,10.932848904266358C28.267863154907225,11.170818904266358,28.09810315490723,11.452768904266357,27.984823154907225,11.762118904266357C27.871533154907226,12.071468904266357,27.817023154907226,12.401988904266357,27.824463154907228,12.734258904266358C27.794563154907227,13.312818904266358,27.954233154907225,13.884378904266358,28.275833154907225,14.349918904266357C28.597433154907225,14.815458904266357,29.060683154907228,15.145648904266357,29.58534315490723,15.283278904266357C30.110003154907226,15.420908904266359,30.663013154907226,15.357318904266357,31.148563154907226,15.103518904266357C31.634113154907226,14.849718904266357,32.02161315490723,14.421688904266357,32.243933154907225,13.893608904266358C32.243933154907225,13.893608904266358,34.43503315490723,15.180878904266358,34.43503315490723,15.180878904266358C33.592873154907224,17.107798904266357,31.942093154907226,17.97925890426636,30.164623154907225,17.97925890426636C29.515293154907226,17.992058904266358,28.87006315490723,17.86645890426636,28.266273154907225,17.609858904266357C27.66248315490723,17.353238904266355,27.112123154907227,16.970718904266356,26.647043154907227,16.48440890426636C26.181973154907226,15.998108904266358,25.811416154907228,15.417668904266357,25.556824154907225,14.776708904266357C25.302233154907228,14.135738904266358,25.168662594907225,13.446968904266358,25.163843154907227,12.750248904266357C25.163843154907227,12.750248904266357,25.163843154907227,12.750248904266357,25.163843154907227,12.750248904266357Z"
          fill="#FFFFFF" fill-opacity="1" />
      </g>
      <g style="mix-blend-mode:passthrough">
        <path
          d="M35.16530799865723,12.779305427703857C35.171113468657225,12.080455427703857,35.30586399865722,11.389755427703857,35.56178299865723,10.747075427703857C35.817702998657225,10.104385427703857,36.189727998657226,9.522435427703858,36.65637799865723,9.034805427703857C37.123037998657225,8.547165427703858,37.67507799865723,8.163510427703857,38.28066799865723,7.905963427703857C38.88625799865723,7.648416427703857,39.533387998657226,7.522082027703857,40.18471799865723,7.534250357703858C40.837467998657225,7.5199449277038575,41.48638799865723,7.644670427703858,42.09390799865723,7.901208427703858C42.70143799865723,8.157747427703857,43.255497998657226,8.541005427703858,43.724037998657224,9.028795427703857C44.19257799865723,9.516585427703857,44.56629799865723,10.099235427703857,44.823547998657226,10.743005427703856C45.080797998657225,11.386775427703856,45.21650799865723,12.078895427703857,45.222807998657224,12.779305427703857C45.21840799865723,13.481245427703858,45.08422799865723,14.175275427703857,44.827887998657225,14.821115427703857C44.57155799865723,15.466955427703859,44.198207998657224,16.05175542770386,43.729527998657225,16.541555427703855C43.26083799865722,17.031365427703857,42.706137998657226,17.416425427703857,42.09761799865723,17.67444542770386C41.489107998657225,17.932345427703858,40.838897998657224,18.058145427703856,40.18471799865723,18.04434542770386C39.53156799865722,18.057645427703857,38.882467998657226,17.931345427703857,38.275217998657226,17.67294542770386C37.667967998657225,17.414545427703857,37.11469799865723,17.02914542770386,36.64758799865723,16.539185427703856C36.180477998657224,16.049215427703857,35.80887599865723,15.464475427703857,35.55440099865723,14.818985427703858C35.299924998657225,14.173495427703857,35.16766187865723,13.480145427703857,35.16530799865723,12.779305427703857C35.16530799865723,12.779305427703857,35.16530799865723,12.779305427703857,35.16530799865723,12.779305427703857ZM42.56213799865723,12.799295427703857C42.57478799865723,12.457175427703858,42.522907998657224,12.115855427703856,42.409597998657226,11.795775427703857C42.29628799865723,11.475695427703858,42.12389799865723,11.183475427703858,41.902747998657226,10.936625427703857C41.68160799865723,10.689765427703858,41.416267998657226,10.493375427703857,41.12264799865723,10.359225427703858C40.829027998657224,10.225075427703857,40.513167998657224,10.155925427703858,40.19403799865723,10.155925427703858C39.874897998657225,10.155925427703858,39.55904799865723,10.225075427703857,39.26542799865723,10.359225427703858C38.971807998657226,10.493375427703857,38.706467998657224,10.689765427703858,38.48531799865722,10.936625427703857C38.264177998657225,11.183475427703858,38.09177799865723,11.475695427703858,37.97846799865722,11.795775427703857C37.865157998657224,12.115855427703856,37.81327799865723,12.457175427703858,37.82592799865723,12.799295427703857C37.81327799865723,13.141405427703857,37.865157998657224,13.482735427703858,37.97846799865722,13.802805427703857C38.09177799865723,14.122885427703856,38.264177998657225,14.415105427703857,38.48531799865722,14.661965427703858C38.706467998657224,14.908815427703857,38.971807998657226,15.105205427703858,39.26542799865723,15.239355427703856C39.55904799865723,15.373515427703857,39.874897998657225,15.442665427703858,40.19403799865723,15.442665427703858C40.513167998657224,15.442665427703858,40.829027998657224,15.373515427703857,41.12264799865723,15.239355427703856C41.416267998657226,15.105205427703858,41.68160799865723,14.908815427703857,41.902747998657226,14.661965427703858C42.12389799865723,14.415105427703857,42.29628799865723,14.122885427703856,42.409597998657226,13.802805427703857C42.522907998657224,13.482735427703858,42.57478799865723,13.141405427703857,42.56213799865723,12.799295427703857C42.56213799865723,12.799295427703857,42.56213799865723,12.799295427703857,42.56213799865723,12.799295427703857Z"
          fill="#FFFFFF" fill-opacity="1" />
      </g>
      <g style="mix-blend-mode:passthrough">
        <path
          d="M46.60891151428223,17.731344646453856C46.60891151428223,17.731344646453856,46.60891151428223,12.026594646453859,46.60891151428223,12.026594646453859C46.60891151428223,9.476024646453858,47.957851514282225,7.525124728453857,50.70791151428223,7.525124728453857C51.298021514282226,7.518373006453857,51.883821514282225,7.633748646453857,52.43322151428222,7.864933646453857C52.43322151428222,7.864933646453857,52.43322151428222,10.639374646453858,52.43322151428222,10.639374646453858C51.97850151428223,10.363234646453858,51.46518151428223,10.217304646453858,50.942671514282225,10.215614646453858C49.89184151428223,10.215614646453858,49.254631514282224,10.939204646453858,49.254631514282224,12.126534646453857C49.254631514282224,12.126534646453857,49.254631514282224,17.723344646453857,49.254631514282224,17.723344646453857C49.254631514282224,17.723344646453857,46.60891151428223,17.731344646453856,46.60891151428223,17.731344646453856Z"
          fill="#FFFFFF" fill-opacity="1" />
      </g>
      <g style="mix-blend-mode:passthrough">
        <path
          d="M55.86157252990723,13.110041326141356C55.86157252990723,13.110041326141356,55.86157252990723,17.73149132614136,55.86157252990723,17.73149132614136C55.86157252990723,17.73149132614136,53.20095252990723,17.73149132614136,53.20095252990723,17.73149132614136C53.20095252990723,17.73149132614136,53.20095252990723,12.770231326141356,53.20095252990723,12.770231326141356C53.20095252990723,9.875861326141358,54.79211252990723,7.505191326141357,58.04522252990723,7.505191326141357C61.29834252990723,7.505191326141357,62.91185252990723,9.855871326141358,62.91185252990723,12.770231326141356C62.91185252990723,12.770231326141356,62.91185252990723,17.73149132614136,62.91185252990723,17.73149132614136C62.91185252990723,17.73149132614136,60.24378252990723,17.73149132614136,60.24378252990723,17.73149132614136C60.24378252990723,17.73149132614136,60.24378252990723,13.110041326141356,60.24378252990723,13.110041326141356C60.24378252990723,11.582901326141357,59.550672529907224,10.279631326141358,58.034042529907225,10.279631326141358C56.517412529907226,10.279631326141358,55.86157252990723,11.582901326141357,55.86157252990723,13.110041326141356Z"
          fill="#FFFFFF" fill-opacity="1" />
      </g>
      <g style="mix-blend-mode:passthrough">
        <path
          d="M64.29055213928223,12.670285271453857C64.29055213928223,9.795905271453858,66.23944213928223,7.425235271453857,69.10501213928222,7.425235271453857C72.04511213928222,7.425235271453857,73.74806213928223,9.755925271453858,73.74806213928223,12.466405271453858C73.74806213928223,12.466405271453858,73.74806213928223,13.313925271453858,73.74806213928223,13.313925271453858C73.74806213928223,13.313925271453858,66.85429213928222,13.313925271453858,66.85429213928222,13.313925271453858C66.93137213928223,13.947945271453857,67.22862213928222,14.527415271453858,67.68663213928222,14.936525271453856C68.14465213928223,15.345625271453859,68.72970213928222,15.554245271453857,69.32487213928222,15.520685271453857C69.79506213928222,15.540925271453858,70.26071213928222,15.415145271453857,70.66590213928222,15.158435271453857C71.07109213928223,14.901725271453858,71.39861213928222,14.525005271453857,71.60913213928222,14.073495271453858C71.60913213928222,14.073495271453858,73.65117213928222,15.180875271453857,73.65117213928222,15.180875271453857C73.26852213928223,16.049505271453857,72.65599213928223,16.77806527145386,71.88996213928223,17.27570527145386C71.12393213928223,17.77333527145386,70.23830213928223,18.018035271453858,69.34350213928222,17.979335271453856C66.45929213928223,17.995335271453857,64.29055213928223,15.844505271453857,64.29055213928223,12.670285271453857ZM71.10980213928222,11.722815271453857C71.04748213928222,11.203205271453857,70.80424213928222,10.728115271453857,70.42892213928222,10.392945271453858C70.05360213928222,10.057765271453857,69.57399213928223,9.887325271453857,69.08638213928222,9.915835271453858C68.59013213928223,9.894185271453857,68.10318213928223,10.064845271453857,67.71455213928223,10.396625271453857C67.32592213928223,10.728415271453857,67.06157213928222,11.199155271453858,66.96981213928223,11.722815271453857C66.96981213928223,11.722815271453857,71.10980213928222,11.722815271453857,71.10980213928222,11.722815271453857Z"
          fill="#FFFFFF" fill-opacity="1" />
      </g>
      <g style="mix-blend-mode:passthrough">
        <path
          d="M75.31691932678223,17.731344646453856C75.31691932678223,17.731344646453856,75.31691932678223,12.026594646453859,75.31691932678223,12.026594646453859C75.31691932678223,9.476024646453858,76.66585932678223,7.525124728453857,79.41591932678223,7.525124728453857C80.00602932678223,7.518373006453857,80.59182932678223,7.633748646453857,81.14122932678222,7.864933646453857C81.14122932678222,7.864933646453857,81.14122932678222,10.639374646453858,81.14122932678222,10.639374646453858C80.68650932678223,10.363234646453858,80.17318932678222,10.217304646453858,79.65067932678222,10.215614646453858C78.59984932678222,10.215614646453858,77.96263932678222,10.939204646453858,77.96263932678222,12.126534646453857C77.96263932678222,12.126534646453857,77.96263932678222,17.723344646453857,77.96263932678222,17.723344646453857C77.96263932678222,17.723344646453857,75.31691932678223,17.731344646453856,75.31691932678223,17.731344646453856Z"
          fill="#FFFFFF" fill-opacity="1" />
      </g>
      <g style="mix-blend-mode:passthrough">
        <path
          d="M81.80446815490723,15.764579646453857C81.80446815490723,15.764579646453857,83.77198815490722,14.565249646453857,83.77198815490722,14.565249646453857C84.16697815490723,15.364809646453857,84.78555815490722,15.712609646453858,85.72086815490722,15.712609646453858C86.58165815490723,15.712609646453858,87.12571815490723,15.348809646453859,87.12571815490723,14.765139646453857C87.12571815490723,13.166039646453857,82.03177615490722,14.545269646453857,82.03177615490722,10.707419646453857C82.03177615490722,8.920429646453858,83.49250815490723,7.509219646453857,85.75813815490723,7.509219646453857C87.74428815490722,7.509219646453857,88.94045815490722,8.512659646453857,89.50313815490722,9.660009646453858C89.50313815490722,9.660009646453858,87.53561815490723,10.859339646453858,87.53561815490723,10.859339646453858C87.37994815490723,10.518349646453856,87.13292815490723,10.234979646453858,86.82621815490722,10.045529646453858C86.51950815490723,9.856079646453857,86.16706815490723,9.769169646453857,85.81402815490722,9.795929646453857C85.15818815490722,9.795929646453857,84.67003815490723,10.135739646453857,84.67003815490723,10.659449646453858C84.67003815490723,12.258549646453858,89.76770815490723,10.979269646453858,89.76770815490723,14.717169646453858C89.76770815490723,16.716049646453857,87.94923815490722,18.015319646453857,85.83266815490722,18.015319646453857C83.91358815490723,18.015319646453857,82.54974115490722,17.247749646453858,81.80446815490723,15.764579646453857Z"
          fill="#FFFFFF" fill-opacity="1" />
      </g>
      <g style="mix-blend-mode:passthrough">
        <path
          d="M98.98684120178223,12.726345427703858C99.03691400178222,11.330925427703857,99.58883120178223,10.010545427703857,100.52677120178222,9.042285427703858C101.46472120178223,8.074025427703857,102.71578120178222,7.533145427703858,104.01743120178223,7.533145427703857C105.31908120178223,7.533145427703857,106.57014120178222,8.074025427703857,107.50809120178222,9.042285427703858C108.44603120178223,10.010545427703857,108.99794120178223,11.330925427703857,109.04804120178223,12.726345427703858C109.04804120178223,14.157705427703856,108.51802120178223,15.530445427703857,107.57460120178223,16.54257542770386C106.63118120178223,17.554745427703857,105.35163120178223,18.123345427703857,104.01743120178223,18.123345427703857C102.68324120178222,18.123345427703857,101.40368120178222,17.554745427703857,100.46026120178223,16.54257542770386C99.51684720178223,15.530445427703857,98.98684120178223,14.157705427703856,98.98684120178223,12.726345427703858C98.98684120178223,12.726345427703858,98.98684120178223,12.726345427703858,98.98684120178223,12.726345427703858ZM106.38740120178223,12.746335427703858C106.38740120178223,12.071995427703857,106.13770120178222,11.425285427703857,105.69325120178223,10.948465427703857C105.24879120178223,10.471635427703857,104.64598120178222,10.203755427703857,104.01743120178223,10.203755427703857C103.38888120178223,10.203755427703857,102.78607120178222,10.471635427703857,102.34161120178223,10.948465427703857C101.89716120178223,11.425285427703857,101.64746120178222,12.071995427703857,101.64746120178222,12.746335427703858C101.64746120178222,13.420665427703858,101.89716120178223,14.067375427703858,102.34161120178223,14.544195427703858C102.78607120178222,15.021025427703858,103.38888120178223,15.288905427703858,104.01743120178223,15.288905427703858C104.64598120178222,15.288905427703858,105.24879120178223,15.021025427703858,105.69325120178223,14.544195427703858C106.13770120178222,14.067375427703858,106.38740120178223,13.420665427703858,106.38740120178223,12.746335427703858C106.38740120178223,12.746335427703858,106.38740120178223,12.746335427703858,106.38740120178223,12.746335427703858Z"
          fill="#FFFFFF" fill-opacity="1" />
      </g>
      <g style="mix-blend-mode:passthrough">
        <path
          d="M92.34627534240722,13.793658904266357C92.34627534240722,13.793658904266357,92.34627534240722,10.195678904266359,92.34627534240722,10.195678904266359C92.34627534240722,10.195678904266359,90.64333534240723,10.195678904266359,90.64333534240723,10.195678904266359C90.64333534240723,10.195678904266359,90.64333534240723,7.797028904266357,90.64333534240723,7.797028904266357C90.64333534240723,7.797028904266357,92.34627534240722,7.797028904266357,92.34627534240722,7.797028904266357C92.34627534240722,7.797028904266357,92.34627534240722,5.254458904266357,92.34627534240722,5.254458904266357C92.34627534240722,5.254458904266357,95.00690534240722,5.254458904266357,95.00690534240722,5.254458904266357C95.00690534240722,5.254458904266357,95.00690534240722,7.785038904266358,95.00690534240722,7.785038904266358C95.00690534240722,7.785038904266358,98.28610534240723,7.785038904266358,98.28610534240723,7.785038904266358C98.28610534240723,7.785038904266358,98.28610534240723,10.183688904266358,98.28610534240723,10.183688904266358C98.28610534240723,10.183688904266358,95.00690534240722,10.183688904266358,95.00690534240722,10.183688904266358C95.00690534240722,10.183688904266358,95.00690534240722,13.701708904266358,95.00690534240722,13.701708904266358C94.98629534240723,13.933188904266357,95.01298534240723,14.166718904266357,95.08512534240722,14.385988904266357C95.15726534240723,14.605268904266357,95.27311534240722,14.805038904266357,95.42459534240723,14.971358904266358C95.57607534240722,15.137678904266357,95.75954534240722,15.266558904266358,95.96221534240723,15.348958904266357C96.16488534240723,15.431458904266357,96.38187534240723,15.465458904266358,96.59806534240722,15.448758904266358C97.18940534240723,15.443758904266357,97.77001534240722,15.278758904266358,98.28610534240723,14.968998904266357C98.28610534240723,14.968998904266357,98.28610534240723,17.519558904266358,98.28610534240723,17.519558904266358C97.69084534240723,17.852358904266357,97.02694534240723,18.018758904266356,96.35585534240722,18.003258904266357C93.67659534240723,18.015258904266357,92.34627534240722,16.28425890426636,92.34627534240722,13.793658904266357Z"
          fill="#FFFFFF" fill-opacity="1" />
      </g>
      <g style="mix-blend-mode:passthrough">
        <path
          d="M113.10595729553222,13.110041326141356C113.10595729553222,13.110041326141356,113.10595729553222,17.73149132614136,113.10595729553222,17.73149132614136C113.10595729553222,17.73149132614136,110.44533729553223,17.73149132614136,110.44533729553223,17.73149132614136C110.44533729553223,17.73149132614136,110.44533729553223,12.770231326141356,110.44533729553223,12.770231326141356C110.44533729553223,9.875861326141358,112.03649729553223,7.505191326141357,115.28960729553222,7.505191326141357C118.54272729553223,7.505191326141357,120.15996729553223,9.855871326141358,120.15996729553223,12.770231326141356C120.15996729553223,12.770231326141356,120.15996729553223,17.73149132614136,120.15996729553223,17.73149132614136C120.15996729553223,17.73149132614136,117.49933729553223,17.73149132614136,117.49933729553223,17.73149132614136C117.49933729553223,17.73149132614136,117.49933729553223,13.110041326141356,117.49933729553223,13.110041326141356C117.49933729553223,11.582901326141357,116.80623729553223,10.279631326141358,115.28960729553222,10.279631326141358C113.77297729553223,10.279631326141358,113.10595729553222,11.582901326141357,113.10595729553222,13.110041326141356Z"
          fill="#FFFFFF" fill-opacity="1" />
      </g>
      <g style="mix-blend-mode:passthrough">
        <path
          d="M121.53884315490723,12.670285271453857C121.53884315490723,9.795905271453858,123.48772315490723,7.425235271453857,126.35329315490722,7.425235271453857C129.29340315490722,7.4252352714538565,130.99262315490722,9.755925271453858,130.99262315490722,12.450415271453856C130.99262315490722,12.450415271453856,130.99262315490722,13.297935271453857,130.99262315490722,13.297935271453857C130.99262315490722,13.297935271453857,124.09885315490723,13.297935271453857,124.09885315490723,13.297935271453857C124.17593315490723,13.931955271453857,124.47318315490723,14.511425271453858,124.93120315490722,14.920535271453858C125.38922315490723,15.329635271453856,125.97427315490722,15.538255271453858,126.56943315490723,15.504695271453857C127.04000315490723,15.524225271453858,127.50588315490722,15.398185271453858,127.91154315490722,15.141595271453857C128.31720315490722,14.885005271453856,128.64553315490724,14.508695271453856,128.85741315490722,14.057505271453858C128.85741315490722,14.057505271453858,130.89946315490724,15.164885271453858,130.89946315490724,15.164885271453858C130.51603315490723,16.032855271453858,129.90332315490724,16.760835271453857,129.13748315490722,17.25835527145386C128.37163315490722,17.755835271453858,127.48641315490723,18.00103527145386,126.59179315490722,17.963335271453857C123.71131315490723,17.995335271453857,121.53884315490723,15.844505271453857,121.53884315490723,12.670285271453857ZM128.35808315490723,11.722815271453857C128.29660315490722,11.202815271453858,128.05360315490722,10.727165271453858,127.67808315490723,10.391815271453858C127.30257315490722,10.056465271453858,126.82249315490722,9.886375271453858,126.33467315490722,9.915835271453858C125.83841315490723,9.894185271453857,125.35147315490723,10.064845271453857,124.96285315490722,10.396625271453857C124.57422315490723,10.728415271453857,124.30986315490722,11.199155271453858,124.21810315490723,11.722815271453857C124.21810315490723,11.722815271453857,128.35808315490723,11.722815271453857,128.35808315490723,11.722815271453857Z"
          fill="#FFFFFF" fill-opacity="1" />
      </g>
    </g>
  </g>
</svg>
