<svg width="308" height="51" viewBox="0 0 308 51" fill="none" xmlns="http://www.w3.org/2000/svg">
  <g clip-path="url(#clip0_0_1)">
    <path d="M0 12.723L10.7218 18.9473V31.8566L0 25.6225V12.723Z" fill="#62AEFE" />
    <path d="M0 25.6226L10.7218 31.8567V44.7659L0 38.5318V25.6226Z" fill="#5C65A5" />
    <path d="M10.7217 18.9474L21.4337 25.1815V38.0908L10.7217 31.8567V18.9474Z" fill="#564788" />
    <path d="M10.7217 31.8566L21.4337 38.0907V50.9999L10.7217 44.7658V31.8566Z" fill="#51328E" />
    <path d="M42.877 25.152L32.1553 31.3861V44.2954L42.877 38.0613V25.152Z" fill="#2F2B48" />
    <path d="M21.4336 38.0907V51L32.1554 44.2954L21.4336 38.0907Z" fill="#48297B" />
    <path d="M32.1554 44.2954L21.4336 38.0613V25.152L32.1554 31.3861V44.2954Z" fill="#494661" />
    <path d="M0 12.7133L11.072 6.36157L21.7159 12.5467L10.7218 18.9474L0 12.7133Z" fill="#BF9AD2" />
    <path d="M10.7217 18.918L21.6789 12.5352L32.5539 18.7669L21.4337 25.1521L10.7217 18.918Z" fill="#D0B5E0" />
    <path d="M11.0723 6.36152L22.1443 0L32.7674 6.23174L21.6792 12.5351L11.0723 6.36152Z" fill="#A676BF" />
    <path d="M21.6787 12.5351L32.7669 6.23169L43.4997 12.3897L32.5056 18.7905L21.6787 12.5351Z" fill="#6649A9" />
    <path d="M32.1554 31.3861L21.4336 25.1521L32.5056 18.7905L42.8771 25.1521L32.1554 31.3861Z" fill="#5C5A6F" />
  </g>
  <g clip-path="url(#clip1_0_1)">
    <path
      d="M59 29.4474C59.0033 27.9184 59.3103 26.4054 59.9033 24.9962C60.4962 23.587 61.3632 22.3098 62.4539 21.2389C63.5446 20.1681 64.8372 19.3248 66.2565 18.7582C67.6758 18.1916 69.1936 17.913 70.7215 17.9386C74.9033 17.9386 78.7871 19.8772 80.7684 24.079C79.6046 24.7345 78.3007 25.1013 76.9659 25.1486C75.6312 25.1959 74.3046 24.9224 73.0973 24.3509C72.3578 23.9891 71.5447 23.8029 70.7215 23.807C69.9926 23.808 69.2713 23.9547 68.5998 24.2385C67.9284 24.5223 67.3204 24.9374 66.8116 25.4596C66.3028 25.9818 65.9034 26.6005 65.6369 27.2792C65.3704 27.958 65.2421 28.6832 65.2596 29.4123C65.1893 30.6818 65.5649 31.9359 66.3216 32.9574C67.0782 33.9789 68.1681 34.7034 69.4024 35.0054C70.6368 35.3074 71.9379 35.1679 73.0802 34.611C74.2226 34.0541 75.1342 33.1149 75.6573 31.9562L80.8123 34.7807C78.8309 39.0088 74.9472 40.9211 70.7653 40.9211C69.2376 40.949 67.7196 40.6734 66.2991 40.1104C64.8785 39.5473 63.5837 38.708 62.4895 37.641C61.3953 36.5739 60.5235 35.3003 59.9246 33.8939C59.3256 32.4875 59.0113 30.9761 59 29.4474V29.4474Z"
      fill="black" />
    <path
      d="M82.5303 29.5112C82.5439 27.9778 82.861 26.4622 83.4631 25.052C84.0652 23.6419 84.9404 22.3649 86.0383 21.295C87.1362 20.225 88.435 19.3832 89.8598 18.818C91.2845 18.2529 92.807 17.9757 94.3394 18.0024C95.8751 17.971 97.4018 18.2447 98.8311 18.8076C100.26 19.3705 101.564 20.2115 102.666 21.2818C103.769 22.3521 104.648 23.6305 105.253 25.0431C105.858 26.4557 106.178 27.9744 106.192 29.5112C106.182 31.0514 105.866 32.5743 105.263 33.9914C104.66 35.4085 103.782 36.6917 102.679 37.7664C101.577 38.8411 100.272 39.6861 98.8399 40.2521C97.4082 40.8181 95.8785 41.0941 94.3394 41.0638C92.8027 41.0929 91.2756 40.8159 89.8469 40.2489C88.4183 39.6819 87.1166 38.8363 86.0176 37.7612C84.9187 36.6861 84.0444 35.403 83.4457 33.9867C82.847 32.5704 82.5358 31.049 82.5303 29.5112ZM99.9327 29.5551C99.9625 28.8044 99.8404 28.0554 99.5739 27.3531C99.3073 26.6508 98.9017 26.0096 98.3814 25.468C97.8611 24.9263 97.2369 24.4954 96.5461 24.201C95.8553 23.9067 95.1122 23.7549 94.3613 23.7549C93.6105 23.7549 92.8674 23.9067 92.1766 24.201C91.4858 24.4954 90.8615 24.9263 90.3412 25.468C89.821 26.0096 89.4154 26.6508 89.1488 27.3531C88.8822 28.0554 88.7601 28.8044 88.7899 29.5551C88.7601 30.3057 88.8822 31.0547 89.1488 31.757C89.4154 32.4593 89.821 33.1005 90.3412 33.6422C90.8615 34.1838 91.4858 34.6147 92.1766 34.9091C92.8674 35.2034 93.6105 35.3552 94.3613 35.3552C95.1122 35.3552 95.8553 35.2034 96.5461 34.9091C97.2369 34.6147 97.8611 34.1838 98.3814 33.6422C98.9017 33.1005 99.3073 32.4593 99.5739 31.757C99.8404 31.0547 99.9625 30.3057 99.9327 29.5551Z"
      fill="black" />
    <path
      d="M109.454 40.3772V27.8596C109.454 22.2631 112.628 17.9824 119.098 17.9824C120.486 17.9676 121.864 18.2208 123.157 18.728V24.8158C122.087 24.2098 120.879 23.8896 119.65 23.8859C117.178 23.8859 115.679 25.4737 115.679 28.0789V40.3596L109.454 40.3772Z"
      fill="black" />
    <path
      d="M131.223 30.2368V40.3772H124.963V29.4912C124.963 23.1404 128.706 17.9386 136.36 17.9386C144.014 17.9386 147.81 23.0965 147.81 29.4912V40.3772H141.532V30.2368C141.532 26.886 139.902 24.0263 136.334 24.0263C132.766 24.0263 131.223 26.886 131.223 30.2368Z"
      fill="black" />
    <path
      d="M151.054 29.272C151.054 22.9649 155.639 17.7632 162.381 17.7632C169.298 17.7632 173.304 22.8772 173.304 28.8246V30.6842H157.085C157.267 32.0754 157.966 33.3469 159.044 34.2446C160.121 35.1422 161.498 35.6 162.898 35.5263C164.004 35.5708 165.1 35.2948 166.053 34.7315C167.006 34.1682 167.777 33.3416 168.272 32.3509L173.076 34.7807C172.176 36.6867 170.735 38.2853 168.933 39.3772C167.131 40.4692 165.047 41.0061 162.942 40.9211C156.156 40.9562 151.054 36.2369 151.054 29.272ZM167.097 27.193C166.951 26.0529 166.378 25.0104 165.495 24.275C164.612 23.5395 163.484 23.1655 162.337 23.2281C161.169 23.1806 160.024 23.5551 159.109 24.2831C158.195 25.0111 157.573 26.044 157.357 27.193H167.097Z"
      fill="black" />
    <path
      d="M176.995 40.3772V27.8596C176.995 22.2631 180.169 17.9824 186.639 17.9824C188.027 17.9676 189.405 18.2208 190.698 18.728V24.8158C189.628 24.2098 188.42 23.8896 187.191 23.8859C184.719 23.8859 183.22 25.4737 183.22 28.0789V40.3596L176.995 40.3772Z"
      fill="black" />
    <path
      d="M192.258 36.0614L196.887 33.4298C197.816 35.1842 199.271 35.9474 201.472 35.9474C203.497 35.9474 204.777 35.1491 204.777 33.8684C204.777 30.3597 192.793 33.386 192.793 24.9649C192.793 21.0439 196.229 17.9474 201.56 17.9474C206.232 17.9474 209.047 20.1491 210.37 22.6667L205.741 25.2983C205.375 24.5501 204.794 23.9283 204.072 23.5126C203.351 23.0969 202.522 22.9062 201.691 22.9649C200.148 22.9649 199 23.7105 199 24.8597C199 28.3684 210.993 25.5614 210.993 33.7632C210.993 38.1491 206.715 41 201.735 41C197.22 41 194.011 39.3158 192.258 36.0614Z"
      fill="black" />
    <path
      d="M232.683 29.395C232.8 26.3331 234.099 23.436 236.306 21.3114C238.512 19.1868 241.456 18 244.518 18C247.58 18 250.524 19.1868 252.73 21.3114C254.937 23.436 256.236 26.3331 256.353 29.395C256.353 32.5357 255.107 35.5478 252.887 37.7686C250.667 39.9895 247.657 41.2371 244.518 41.2371C241.379 41.2371 238.369 39.9895 236.149 37.7686C233.93 35.5478 232.683 32.5357 232.683 29.395ZM250.094 29.4389C250.094 27.9592 249.506 26.5402 248.461 25.4939C247.415 24.4477 245.997 23.8599 244.518 23.8599C243.039 23.8599 241.621 24.4477 240.575 25.4939C239.53 26.5402 238.942 27.9592 238.942 29.4389C238.942 30.9185 239.53 32.3375 240.575 33.3838C241.621 34.43 243.039 35.0178 244.518 35.0178C245.997 35.0178 247.415 34.43 248.461 33.3838C249.506 32.3375 250.094 30.9185 250.094 29.4389Z"
      fill="black" />
    <path
      d="M217.06 31.7368V23.8421H213.054V18.5789H217.06V13H223.32V18.5526H231.035V23.8158H223.32V31.5351C223.271 32.043 223.334 32.5554 223.504 33.0366C223.674 33.5177 223.946 33.956 224.303 34.321C224.659 34.6859 225.091 34.9687 225.567 35.1496C226.044 35.3305 226.555 35.4052 227.063 35.3684C228.455 35.3575 229.821 34.9954 231.035 34.3158V39.9123C229.634 40.6426 228.072 41.0076 226.494 40.9737C220.19 41 217.06 37.2018 217.06 31.7368Z"
      fill="black" />
    <path
      d="M265.901 30.2368V40.3772H259.642V29.4912C259.642 23.1404 263.385 17.9386 271.039 17.9386C278.692 17.9386 282.497 23.0965 282.497 29.4912V40.3772H276.238V30.2368C276.238 26.886 274.607 24.0263 271.039 24.0263C267.471 24.0263 265.901 26.886 265.901 30.2368Z"
      fill="black" />
    <path
      d="M285.74 29.272C285.74 22.9649 290.325 17.7632 297.067 17.7632C303.984 17.7632 307.982 22.8772 307.982 28.7895V30.6491H291.763C291.944 32.0403 292.644 33.3118 293.721 34.2095C294.799 35.1071 296.175 35.5649 297.576 35.4913C298.683 35.5341 299.779 35.2575 300.733 34.6945C301.688 34.1315 302.46 33.3058 302.959 32.3158L307.763 34.7456C306.861 36.6502 305.419 38.2475 303.618 39.3392C301.816 40.4308 299.733 40.9687 297.628 40.886C290.851 40.9562 285.74 36.2369 285.74 29.272ZM301.784 27.193C301.639 26.052 301.067 25.0083 300.184 24.2725C299.301 23.5367 298.171 23.1634 297.023 23.2281C295.856 23.1806 294.71 23.5551 293.796 24.2831C292.882 25.0111 292.26 26.044 292.044 27.193H301.784Z"
      fill="black" />
  </g>
  <defs>
    <clipPath id="clip0_0_1">
      <rect width="43.5" height="51" fill="black" />
    </clipPath>
    <clipPath id="clip1_0_1">
      <rect width="249" height="28" fill="black" transform="translate(59 13)" />
    </clipPath>
  </defs>
</svg>
