<svg width="232" height="32" viewBox="0 0 232 32" fill="none" xmlns="http://www.w3.org/2000/svg">
  <g clip-path="url(#clip0_36_42)">
    <path d="M30.832 6.30676L15.4126 0L0 6.30676L6.78398 10.4092L15.4126 6.65307L24.048 10.4092L30.832 6.30676Z"
      fill="url(#paint0_linear_36_42)" />
    <path d="M15.4126 32V24.7476L7.68941 18.8737L6.78398 10.4092L0 6.30676L2.83792 21.8772L15.4126 32Z"
      fill="url(#paint1_linear_36_42)" />
    <path d="M15.4126 32V24.7476L23.1426 18.8737L24.048 10.4092L30.832 6.30676L27.994 21.8772L15.4126 32Z"
      fill="url(#paint2_linear_36_42)" />
    <path d="M6.784 10.3958L15.4126 6.63306V14.1186L7.68943 18.8603" fill="url(#paint3_linear_36_42)" />
    <path d="M23.1426 18.8603L15.4126 14.1186V6.63306L24.048 10.3958" fill="url(#paint4_linear_36_42)" />
    <path d="M15.4126 24.7476L23.1425 18.8737L15.4126 14.1187L7.68939 18.8737L15.4126 24.7476Z"
      fill="url(#paint5_linear_36_42)" />
    <path d="M7.79755 9.41684L15.3991 13.386L23.0345 9.41684L15.3991 5.61414L7.79755 9.41684Z"
      fill="url(#paint6_linear_36_42)" />
    <path d="M15.3991 22.0371V13.3861L7.79755 9.41687L8.5746 17.2687L15.3991 22.0371Z"
      fill="url(#paint7_radial_36_42)" />
    <path d="M15.3991 22.0371V13.3861L23.0345 9.41687L22.2236 17.2687L15.3991 22.0371Z"
      fill="url(#paint8_linear_36_42)" />
    <path
      d="M23.0344 9.49679L22.9939 9.41687L15.3856 13.3727L7.7975 9.41687L7.75696 9.49679L15.3383 13.446V22.0371H15.4261V13.446L23.0344 9.49679Z"
      fill="url(#paint9_radial_36_42)" />
    <path
      d="M53.2448 20.119C52.5691 22.5698 51.2988 23.5687 48.7717 23.5687C45.481 23.5687 43.5891 21.5708 43.5891 18.1344C43.5891 14.698 45.481 12.7 48.7717 12.7C51.3123 12.7 52.8259 13.7057 53.1772 15.6104L53.238 15.95H57.2922L57.2111 15.4705C56.5827 11.6478 53.3529 9.36353 48.5622 9.36353C43.0823 9.36353 39.5417 12.8466 39.5417 18.2276C39.5417 22.4233 41.9201 26.8853 48.5892 26.8853C53.2583 26.8853 56.0219 24.7941 57.2584 20.3121L57.4071 19.7927H53.3529L53.2448 20.119Z"
      fill="black" />
    <path
      d="M68.2453 9.36353C62.4005 9.36353 58.6234 12.8066 58.6234 18.1344C58.6234 23.4622 62.4005 26.9053 68.2453 26.9053C74.09 26.9053 77.8672 23.4622 77.8672 18.1344C77.8672 12.8066 74.09 9.36353 68.2453 9.36353ZM73.8197 18.1344C73.8197 20.765 72.3535 23.5687 68.2453 23.5687C64.137 23.5687 62.664 20.765 62.664 18.1344C62.664 15.5038 64.1303 12.7 68.2453 12.7C72.3602 12.7 73.8197 15.5038 73.8197 18.1344Z"
      fill="black" />
    <path
      d="M88.9891 9.36353C87.9965 9.35733 87.0166 9.58424 86.1306 10.0255C85.2447 10.4667 84.4781 11.1096 83.8943 11.9009V9.90297H80.0294V26.3658H83.8943V18.0145C83.8943 15.0576 85.6376 13.2928 88.5634 13.2928C89.2498 13.2881 89.933 13.3846 90.5905 13.5791L91.1243 13.7257V9.64324L90.8134 9.55666C90.2176 9.40812 89.6034 9.3431 88.9891 9.36353Z"
      fill="black" />
    <path
      d="M102.071 9.36353C100.994 9.31865 99.92 9.49103 98.9138 9.8701C97.9075 10.2492 96.9905 10.8269 96.219 11.5679C96.219 11.1263 96.041 10.7029 95.7242 10.3906C95.4074 10.0784 94.9778 9.90297 94.5297 9.90297H92.354V26.3658H96.219V16.9423C96.219 14.012 98.6245 12.7001 101.01 12.7001C104.841 12.7001 105.28 14.5248 105.28 15.8967V26.3658H109.145V15.3173C109.145 11.5279 106.571 9.36353 102.071 9.36353Z"
      fill="black" />
    <path
      d="M120.949 9.36353C115.105 9.36353 111.328 12.8066 111.328 18.1344C111.328 23.4622 115.084 26.9053 120.949 26.9053C122.778 26.94 124.574 26.4296 126.103 25.4409C127.632 24.4521 128.822 23.0312 129.517 21.3644L129.754 20.7983H125.652L125.537 21.0314C124.497 23.2424 122.159 23.5687 120.808 23.5687C118.409 23.5687 115.875 22.1569 115.436 19.4464H129.977V18.6472C129.95 11.7943 125.091 9.36353 120.949 9.36353ZM120.801 12.6934C123.395 12.6934 125.24 14.0253 125.828 16.283H115.544C116.159 14.1252 118.199 12.7 120.781 12.7L120.801 12.6934Z"
      fill="black" />
    <path
      d="M141.16 9.36357C140.168 9.35788 139.189 9.58506 138.304 10.0263C137.42 10.4675 136.654 11.1102 136.072 11.9009C136.072 11.371 135.858 10.8629 135.478 10.4882C135.098 10.1135 134.582 9.90301 134.044 9.90301H132.207V26.3659H136.072V18.0146C136.072 15.0576 137.815 13.2928 140.734 13.2928C141.42 13.2883 142.103 13.3849 142.761 13.5792L143.295 13.7257V9.64328L142.984 9.5567C142.388 9.40842 141.774 9.3434 141.16 9.36357Z"
      fill="black" />
    <path
      d="M154.633 16.5894L150.329 16.0233C148.227 15.7636 148.058 15.2041 148.058 14.4915C148.058 12.6135 151.194 12.4936 151.822 12.4936C154.403 12.4936 156.065 13.4659 156.153 15.031V15.4172H160.025L159.991 14.971C159.822 12.8666 158.538 9.33691 151.822 9.33691C147.031 9.33691 144.166 11.3815 144.166 14.7979C144.166 17.6682 146.572 19.0335 148.829 19.3531L153.822 20.0191C156.261 20.3454 156.464 20.9715 156.464 21.6974C156.464 22.9894 154.849 23.6953 152.038 23.6953C148.66 23.6953 147.457 22.2901 147.457 20.9781V20.6451H143.585L143.619 21.0847C143.815 23.7486 145.457 26.9319 152.153 26.9319C157.559 26.9319 160.538 24.8874 160.538 21.1779C160.538 18.6472 158.66 17.1621 154.633 16.5894Z"
      fill="black" />
    <path
      d="M167.681 5.10132L163.816 5.99372V9.89632H160.545V13.053H163.816V22.7896C163.816 24.6676 164.613 26.9053 168.417 26.9053C169.579 26.9471 170.743 26.8735 171.89 26.6855L172.221 26.6189V23.309L171.735 23.3956C171.066 23.5206 170.388 23.5875 169.708 23.5954C168.018 23.5954 167.681 23.0826 167.681 22.3101V13.0597H172.221V9.90298H167.681V5.10132Z"
      fill="black" />
    <path
      d="M182.613 9.36353C176.769 9.36353 172.992 12.8066 172.992 18.1344C172.992 23.4622 176.769 26.9053 182.613 26.9053C188.458 26.9053 192.235 23.4622 192.235 18.1344C192.235 12.8066 188.458 9.36353 182.613 9.36353ZM188.195 18.1344C188.195 20.765 186.728 23.5687 182.613 23.5687C178.498 23.5687 177.032 20.765 177.032 18.1344C177.032 15.5038 178.498 12.7 182.607 12.7C186.715 12.7 188.195 15.5038 188.195 18.1344Z"
      fill="black" />
    <path
      d="M204.114 9.36361C203.039 9.31806 201.965 9.49016 200.96 9.86929C199.955 10.2484 199.039 10.8265 198.269 11.568C198.269 11.1264 198.091 10.7029 197.775 10.3907C197.458 10.0785 197.028 9.90304 196.58 9.90304H194.404V26.3659H198.269V16.9424C198.269 14.0121 200.675 12.7001 203.053 12.7001C206.884 12.7001 207.33 14.5249 207.33 15.8968V26.3659H211.195V15.3174C211.195 11.528 208.614 9.36361 204.114 9.36361Z"
      fill="black" />
    <path
      d="M232 18.6472C232 11.801 227.142 9.37024 222.979 9.37024C217.135 9.37024 213.358 12.8133 213.358 18.1411C213.358 23.4689 217.135 26.9053 222.979 26.9053C224.807 26.9406 226.603 26.4303 228.13 25.4414C229.658 24.4525 230.847 23.0313 231.541 21.3644L231.777 20.7983H227.709L227.594 21.0314C226.547 23.2425 224.175 23.5688 222.865 23.5688C220.466 23.5688 217.932 22.1569 217.459 19.4464H232.007L232 18.6472ZM222.831 12.7068C225.425 12.7068 227.27 14.0387 227.851 16.2964H217.574C218.209 14.1253 220.277 12.7001 222.831 12.7001V12.7068Z"
      fill="black" />
  </g>
  <defs>
    <linearGradient id="paint0_linear_36_42" x1="-18.183" y1="-20.8583" x2="24.162" y2="14.3809"
      gradientUnits="userSpaceOnUse">
      <stop stop-color="#BE99C2" />
      <stop offset="0.52" stop-color="#70C6D0" />
      <stop offset="0.97" stop-color="#51328E" />
    </linearGradient>
    <linearGradient id="paint1_linear_36_42" x1="-1.84465" y1="7.61873" x2="13.8855" y2="28.3644"
      gradientUnits="userSpaceOnUse">
      <stop stop-color="#70C6D0" />
      <stop offset="0.97" stop-color="#51328E" />
    </linearGradient>
    <linearGradient id="paint2_linear_36_42" x1="33.2172" y1="11.6678" x2="11.3809" y2="27.5715"
      gradientUnits="userSpaceOnUse">
      <stop stop-color="#BE99C2" />
      <stop offset="0.97" stop-color="#51328E" />
    </linearGradient>
    <linearGradient id="paint3_linear_36_42" x1="6.75021" y1="5.78061" x2="14.0429" y2="16.6677"
      gradientUnits="userSpaceOnUse">
      <stop stop-color="#3365C2" />
      <stop offset="0.97" stop-color="#51328E" />
    </linearGradient>
    <linearGradient id="paint4_linear_36_42" x1="18.9262" y1="7.78519" x2="20.8183" y2="18.6233"
      gradientUnits="userSpaceOnUse">
      <stop stop-color="#3365C2" />
      <stop offset="0.97" stop-color="#51328E" />
    </linearGradient>
    <linearGradient id="paint5_linear_36_42" x1="12.9193" y1="12.7001" x2="17.7165" y2="24.9286"
      gradientUnits="userSpaceOnUse">
      <stop stop-color="#705062" />
      <stop offset="1" stop-color="#293293" />
    </linearGradient>
    <linearGradient id="paint6_linear_36_42" x1="10.3855" y1="5.86055" x2="20.3403" y2="13.1098"
      gradientUnits="userSpaceOnUse">
      <stop stop-color="#EFEFEF" />
      <stop offset="1" stop-color="#B5B5B6" />
    </linearGradient>
    <radialGradient id="paint7_radial_36_42" cx="0" cy="0" r="1" gradientUnits="userSpaceOnUse"
      gradientTransform="translate(7.9935 9.59668) scale(8.12186 8.005)">
      <stop stop-color="#F7F8F8" />
      <stop offset="1" stop-color="#EFEFEF" />
    </radialGradient>
    <linearGradient id="paint8_linear_36_42" x1="14.7775" y1="12.5669" x2="22.0021" y2="17.8609"
      gradientUnits="userSpaceOnUse">
      <stop stop-color="#C9CACA" />
      <stop offset="1" stop-color="#898989" />
    </linearGradient>
    <radialGradient id="paint9_radial_36_42" cx="0" cy="0" r="1" gradientUnits="userSpaceOnUse"
      gradientTransform="translate(15.3585 13.446) scale(6.62857 6.5332)">
      <stop offset="0.02" stop-color="white" />
      <stop offset="1" stop-color="white" stop-opacity="0" />
    </radialGradient>
    <clipPath id="clip0_36_42">
      <rect width="232" height="32" fill="white" />
    </clipPath>
  </defs>
</svg>