<svg width="20" height="20" viewBox="0 0 20 20" fill="none" xmlns="http://www.w3.org/2000/svg">
  <path fill-rule="evenodd" clip-rule="evenodd"
    d="M10 20C15.5228 20 20 15.5228 20 10C20 4.47717 15.5228 0 10 0C4.47717 0 0 4.47717 0 10C0 15.5228 4.47717 20 10 20ZM5.93579 7.35046C5.93579 7.35046 7.60986 6.39209 10 6.39209C12.3125 6.39209 13.9634 7.28918 14.0513 7.34753C13.1393 6.58264 11.5345 6.1394 11.5345 6.1394L11.6833 6C13.1899 6.02612 14.5571 7.00195 14.5571 7.00195C16.101 10.0078 15.9987 12.5953 15.9987 12.5953C14.743 14.1113 12.8923 13.998 12.8923 13.998L12.2599 13.2488C13.376 13.031 14.0828 12.0988 14.0828 12.0988C14.0828 12.0988 12.4087 13.1704 10 13.1704C7.59131 13.1704 5.91724 12.0988 5.91724 12.0988C5.91724 12.0988 6.62402 13.0223 7.74011 13.2488L7.10767 13.998C7.10767 13.998 5.24768 14.1113 4.00146 12.5953C4.00146 12.5953 3.89917 9.99902 5.43359 7.00195C5.43359 7.00195 6.80078 6.02612 8.30737 6L8.45618 6.1394C8.45618 6.1394 6.85657 6.58374 5.93579 7.35046ZM9.2002 10.6177C9.20947 10.0339 8.73523 9.55469 8.15857 9.55469C7.57263 9.55469 7.12622 10.0339 7.12622 10.6177C7.12622 11.1926 7.59131 11.6805 8.15857 11.6805C8.73523 11.6805 9.2002 11.1926 9.2002 10.6177ZM12.9203 10.6177C12.9203 10.0339 12.4552 9.55469 11.8787 9.55469C11.2927 9.55469 10.8463 10.0339 10.8463 10.6177C10.8463 11.1926 11.3113 11.6805 11.8787 11.6805C12.4552 11.6805 12.9203 11.1926 12.9203 10.6177Z"
    fill="white" />
</svg>
