<svg width="137" height="50" viewBox="0 0 137 50" fill="none" xmlns="http://www.w3.org/2000/svg">
  <path
    d="M3.8147e-06 25C3.8147e-06 38.8071 11.1812 50 24.974 50C38.7667 50 49.9479 38.8071 49.9479 25C49.9479 11.1929 38.7667 0 24.974 0C11.1812 0 3.8147e-06 11.1929 3.8147e-06 25Z"
    fill="#0F0E25" />
  <path
    d="M15.6979 32.1428C15.6979 34.707 17.7744 36.7857 20.3359 36.7857C22.8975 36.7857 24.974 34.707 24.974 32.1428L24.974 17.8571C24.974 15.293 22.8975 13.2143 20.3359 13.2143C17.7744 13.2143 15.6979 15.293 15.6979 17.8571L15.6979 32.1428Z"
    fill="white" />
  <path fill-rule="evenodd" clip-rule="evenodd"
    d="M39.2448 17.8571C39.2448 20.4213 37.1683 22.5 34.6068 22.5H15.6979V17.8571C15.6979 15.293 17.7744 13.2143 20.3359 13.2143L34.6068 13.2143C37.1683 13.2143 39.2448 15.293 39.2448 17.8571Z"
    fill="white" />
  <path fill-rule="evenodd" clip-rule="evenodd"
    d="M34.25 22.5V27.1429C34.25 29.707 32.1735 31.7857 29.612 31.7857H15.3411C12.7796 31.7857 10.7031 29.707 10.7031 27.1429C10.7031 24.5787 12.7796 22.5 15.3411 22.5H34.25Z"
    fill="url(#paint0_radial_5_124)" />
  <path
    d="M76.0643 8.57143C79.1858 8.57143 81.6479 9.07763 84.1979 9.67587V41.4286H77.6031V14.5998C77.0755 14.5538 76.5479 14.5538 76.0643 14.5538C73.6022 14.5538 71.9754 15.7503 71.9754 18.4194H75.1849V25.046H71.9754V41.4286H65.3806V25.046H62.4349V18.4194H65.3806C65.3806 11.9768 68.766 8.57143 76.0643 8.57143ZM104.155 18.5714H110.956V40.806H104.155V38.716C102.931 40.3613 100.664 41.4286 97.6712 41.4286C93.0919 41.4286 89.1927 38.2268 89.1927 32.2235V18.5714H95.9936V31.2451C95.9936 34.0022 97.7619 35.2918 99.9382 35.2918C102.432 35.2918 104.155 33.8688 104.155 30.7115V18.5714ZM137 41.0714H129.243L125.048 35.1314L120.854 41.0714H113.096L121.169 29.6414L113.367 18.5714H121.124L125.048 24.1514L128.972 18.5714H136.729L128.927 29.6414L137 41.0714Z"
    fill="#0F0E25" />
  <defs>
    <radialGradient id="paint0_radial_5_124" cx="0" cy="0" r="1" gradientUnits="userSpaceOnUse"
      gradientTransform="translate(39.3367 -15.5357) rotate(180) scale(9.27603 59.8352)">
      <stop stop-color="#FE84FC" />
      <stop offset="1" stop-color="#2ED1FF" />
    </radialGradient>
  </defs>
</svg>
