<svg width="28" height="29" viewBox="0 0 28 29" fill="none" xmlns="http://www.w3.org/2000/svg">
  <path
    d="M16.6795 14.9965C16.6795 15.5265 16.5224 16.0445 16.2279 16.4852C15.9335 16.9259 15.515 17.2693 15.0254 17.4721C14.5357 17.6749 13.997 17.728 13.4772 17.6246C12.9574 17.5212 12.4799 17.266 12.1051 16.8912C11.7304 16.5165 11.4752 16.039 11.3718 15.5193C11.2684 14.9995 11.3215 14.4607 11.5243 13.9711C11.7271 13.4814 12.0705 13.0629 12.5112 12.7685C12.9519 12.4741 13.4699 12.3169 13.9999 12.3169C14.7106 12.3169 15.3922 12.5992 15.8947 13.1017C16.3972 13.6042 16.6795 14.2858 16.6795 14.9965Z"
    fill="white" />
  <path
    d="M20.2664 10.2547C20.1328 9.90787 19.928 9.59286 19.6651 9.33002C19.4023 9.06718 19.0873 8.86233 18.7404 8.72871C18.2627 8.55053 17.7578 8.45582 17.248 8.44872C16.3996 8.40952 16.1462 8.40112 14 8.40112C11.8538 8.40112 11.599 8.40953 10.752 8.44733C10.2422 8.45449 9.73737 8.54919 9.25961 8.72733C8.91275 8.86094 8.59774 9.06577 8.3349 9.32861C8.07206 9.59145 7.86724 9.90646 7.73362 10.2533C7.55546 10.7311 7.46075 11.2359 7.45362 11.7457C7.41442 12.5927 7.40601 12.8475 7.40601 14.9937C7.40601 17.1399 7.41442 17.3947 7.45362 18.2417C7.46072 18.7516 7.55543 19.2564 7.73362 19.7341C7.86724 20.081 8.07206 20.396 8.3349 20.6588C8.59774 20.9217 8.91275 21.1265 9.25961 21.2601C9.73732 21.4384 10.2422 21.5331 10.752 21.5401C11.599 21.5793 11.8538 21.5863 14 21.5863C16.1462 21.5863 16.401 21.5779 17.248 21.5401C17.7579 21.5331 18.2627 21.4384 18.7404 21.2601C19.0873 21.1265 19.4023 20.9217 19.6651 20.6588C19.928 20.396 20.1328 20.081 20.2664 19.7341C20.4445 19.2564 20.5392 18.7516 20.5464 18.2417C20.5856 17.3933 20.5926 17.1399 20.5926 14.9937C20.5926 12.8475 20.5842 12.5927 20.5464 11.7457C20.5393 11.2363 20.4445 10.732 20.2664 10.2547ZM14 19.1237C13.1835 19.1237 12.3852 18.8816 11.7063 18.4279C11.0273 17.9743 10.4982 17.3295 10.1857 16.5751C9.87321 15.8207 9.79144 14.9905 9.95075 14.1897C10.1101 13.3888 10.5032 12.6532 11.0806 12.0758C11.658 11.4984 12.3937 11.1051 13.1946 10.9458C13.9954 10.7865 14.8255 10.8683 15.5799 11.1808C16.3344 11.4933 16.9792 12.0224 17.4328 12.7014C17.8865 13.3803 18.1286 14.1786 18.1286 14.9951C18.1286 16.0901 17.6936 17.1402 16.9194 17.9145C16.1451 18.6887 15.095 19.1237 14 19.1237ZM18.291 11.6687C18.1002 11.6687 17.9137 11.6121 17.7551 11.5062C17.5965 11.4002 17.4729 11.2495 17.3998 11.0732C17.3268 10.897 17.3077 10.7031 17.3449 10.5159C17.3822 10.3288 17.474 10.157 17.6089 10.0221C17.7438 9.88715 17.9157 9.79527 18.1028 9.75806C18.29 9.72084 18.4839 9.73995 18.6602 9.81296C18.8364 9.88596 18.9871 10.0096 19.093 10.1682C19.199 10.3268 19.2556 10.5133 19.2556 10.7041C19.2558 10.8309 19.231 10.9565 19.1826 11.0737C19.1342 11.1909 19.0632 11.2974 18.9736 11.3871C18.884 11.4768 18.7776 11.548 18.6605 11.5966C18.5434 11.6451 18.4178 11.6701 18.291 11.6701V11.6687Z"
    fill="white" />
  <path
    d="M14 0.996582C11.2311 0.996582 8.52431 1.81767 6.22202 3.35601C3.91974 4.89435 2.12532 7.08085 1.06569 9.63902C0.00606598 12.1972 -0.271181 15.0121 0.269012 17.7279C0.809206 20.4436 2.14258 22.9382 4.10051 24.8961C6.05845 26.854 8.55301 28.1874 11.2687 28.7276C13.9845 29.2678 16.7994 28.9905 19.3576 27.9309C21.9157 26.8713 24.1022 25.0769 25.6406 22.7746C27.1789 20.4723 28 17.7655 28 14.9966C28 11.2836 26.525 7.7226 23.8995 5.09709C21.274 2.47158 17.713 0.996582 14 0.996582V0.996582ZM21.9912 18.3104C21.9779 18.9774 21.8515 19.6373 21.6174 20.262C21.4109 20.7959 21.0951 21.2808 20.6903 21.6855C20.2856 22.0903 19.8007 22.4061 19.2668 22.6126C18.6421 22.8466 17.9822 22.973 17.3152 22.9864C16.4584 23.0256 16.184 23.0354 14.0014 23.0354C11.8188 23.0354 11.5444 23.0256 10.6862 22.9864C10.0192 22.973 9.35934 22.8466 8.73461 22.6126C8.20072 22.4061 7.71586 22.0903 7.31108 21.6855C6.9063 21.2808 6.59053 20.7959 6.38401 20.262C6.14991 19.6373 6.02351 18.9774 6.01021 18.3104C5.97101 17.4536 5.96121 17.1792 5.96121 14.9952C5.96121 12.8112 5.97101 12.5382 6.01021 11.6814C6.02354 11.0144 6.14993 10.3545 6.38401 9.72979C6.59084 9.19585 6.90687 8.71098 7.31188 8.30622C7.71689 7.90145 8.20195 7.5857 8.73601 7.37919C9.36075 7.14522 10.0206 7.01883 10.6876 7.00539C11.5444 6.96619 11.8188 6.95639 14.0014 6.95639C16.184 6.95639 16.4584 6.96619 17.3152 7.00539C17.9822 7.01886 18.6421 7.14525 19.2668 7.37919C19.8008 7.58595 20.2857 7.90195 20.6905 8.30697C21.0953 8.71199 21.411 9.19709 21.6174 9.73119C21.8515 10.3559 21.9779 11.0158 21.9912 11.6828C22.0304 12.5396 22.0388 12.814 22.0388 14.9966C22.0388 17.1792 22.0304 17.4536 21.9912 18.3104V18.3104Z"
    fill="white" />
</svg>