<svg width="29" height="29" viewBox="0 0 29 29" fill="none" xmlns="http://www.w3.org/2000/svg">
  <path
    d="M14.0082 29C10.7763 29.0019 7.6432 27.8855 5.14068 25.8403C2.63815 23.7951 0.920325 20.9471 0.27869 17.7794C-0.362945 14.6118 0.111138 11.3198 1.62049 8.4619C3.12984 5.60404 5.58149 3.35642 8.55941 2.10044C11.9806 0.655139 15.8358 0.628099 19.2769 2.02526C22.7181 3.42243 25.4632 6.12935 26.9085 9.55054C28.3538 12.9717 28.3808 16.8269 26.9837 20.2681C25.5865 23.7092 22.8796 26.4543 19.4584 27.8996C17.7342 28.6294 15.8805 29.0037 14.0082 29ZM13.353 19.3918L17.133 22.1624C17.2669 22.2623 17.4294 22.3163 17.5964 22.3164C17.7777 22.3163 17.9535 22.2539 18.0944 22.1397C18.2353 22.0256 18.3328 21.8666 18.3706 21.6892L20.8682 9.73464C20.9076 9.54944 20.8755 9.35621 20.7784 9.19367C20.6813 9.03114 20.5264 8.91132 20.3446 8.85824H20.3082C20.2479 8.84252 20.1858 8.83453 20.1234 8.83444C20.0276 8.83378 19.9326 8.85136 19.8434 8.88624L5.20921 14.58C5.10526 14.6203 5.01654 14.6922 4.95553 14.7855C4.89453 14.8788 4.86429 14.9889 4.86908 15.1003C4.87387 15.2117 4.91344 15.3188 4.98223 15.4065C5.05103 15.4942 5.14558 15.5582 5.25261 15.5894L8.96821 16.694L10.3682 21.1012C10.3974 21.1953 10.4482 21.2812 10.5165 21.3522C10.5848 21.4232 10.6687 21.4772 10.7616 21.51L10.8078 21.524H10.9758C11.0336 21.5244 11.0911 21.5164 11.1466 21.5002C11.1778 21.4914 11.2082 21.4801 11.2376 21.4666C11.2688 21.4528 11.2988 21.4364 11.3272 21.4176C11.3427 21.4072 11.3577 21.396 11.372 21.384C11.3921 21.3678 11.4112 21.3505 11.4294 21.3322L13.353 19.3722V19.3918Z"
    fill="white" />
</svg>