<svg width="29" height="30" viewBox="0 0 29 30" fill="none" xmlns="http://www.w3.org/2000/svg">
  <path
    d="M26.1351 8.14405C24.9142 5.97656 23.1594 4.17581 21.0462 2.92205C18.916 1.64278 16.488 0.977644 14.0192 0.997046C11.5481 0.976449 9.11762 1.64162 6.9854 2.92205C4.86995 4.17471 3.11307 5.9756 1.89101 8.14405C0.643066 10.3276 -0.00580679 12.8164 0.0130535 15.347C-0.0161758 18.3821 0.921284 21.344 2.68317 23.7834C4.38553 26.2201 6.80317 28.035 9.58312 28.9634C9.70613 29.0019 9.83625 29.0102 9.96295 28.9876C10.0897 28.965 10.2094 28.9121 10.3125 28.8332C10.3889 28.7629 10.4496 28.6764 10.4903 28.5797C10.5311 28.4831 10.551 28.3785 10.5487 28.2732L10.5392 27.2638C10.5328 26.6282 10.5296 26.0757 10.5296 25.6062L10.1117 25.686C9.77713 25.7408 9.43826 25.7628 9.09964 25.7518C8.67437 25.7444 8.25044 25.7008 7.83218 25.6216C7.38739 25.5376 6.9687 25.3456 6.61117 25.0616C6.23615 24.771 5.95648 24.37 5.80945 23.9122L5.6278 23.4824C5.47461 23.1422 5.28202 22.8221 5.05417 22.529C4.84962 22.2301 4.57731 21.9865 4.26065 21.8192L4.13363 21.7254C4.04637 21.6608 3.96704 21.5856 3.89735 21.5014C3.83004 21.4232 3.77477 21.335 3.73346 21.2396C3.69704 21.1519 3.72754 21.08 3.82497 21.024C3.99258 20.955 4.17339 20.9263 4.35352 20.94L4.71819 20.996C5.04411 21.0854 5.35048 21.2374 5.62098 21.444C5.98232 21.6966 6.2842 22.0285 6.50464 22.4156C6.7458 22.8824 7.0929 23.2828 7.51669 23.5832C7.86656 23.8363 8.28229 23.9762 8.71039 23.985C9.05903 23.9896 9.40725 23.9582 9.74975 23.8912C10.0328 23.8317 10.3079 23.7377 10.5692 23.6112C10.6295 22.8798 10.9469 22.1957 11.4624 21.6862C10.8322 21.623 10.2076 21.5107 9.59405 21.3502C8.99523 21.1814 8.4194 20.9364 7.87999 20.6208C7.31535 20.3062 6.8165 19.881 6.41177 19.3692C5.97878 18.7814 5.65473 18.117 5.45571 17.4092C5.19299 16.5008 5.0668 15.5566 5.08149 14.6092C5.05136 13.182 5.56873 11.7996 6.52239 10.7592C6.0741 9.52082 6.11973 8.15123 6.64941 6.94705C7.1849 6.85824 7.73406 6.9465 8.21734 7.19905C8.74167 7.39876 9.25032 7.63933 9.73882 7.91865C10.0611 8.11745 10.3193 8.28545 10.5132 8.42265C12.8041 7.77492 15.2233 7.77492 17.5142 8.42265L18.2067 7.97465C18.7391 7.64691 19.3007 7.37174 19.8839 7.15285C20.342 6.92464 20.8593 6.85254 21.3603 6.94705C21.6282 7.54136 21.779 8.18403 21.8041 8.83821C21.8292 9.4924 21.728 10.1452 21.5064 10.7592C22.46 11.7997 22.9773 13.182 22.9473 14.6092C22.9617 15.5608 22.8355 16.509 22.5731 17.4218C22.3763 18.1324 22.0485 18.7977 21.6075 19.3818C21.1962 19.888 20.6953 20.3098 20.1311 20.625C19.5916 20.9404 19.0158 21.1855 18.417 21.3544C17.8035 21.5154 17.1789 21.6282 16.5486 21.6918C16.8878 22.0365 17.1485 22.4536 17.3124 22.9133C17.4762 23.3731 17.5391 23.8643 17.4965 24.3518V28.2942C17.494 28.3988 17.5131 28.5027 17.5524 28.5991C17.5917 28.6956 17.6503 28.7825 17.7246 28.8542C17.8255 28.9336 17.9437 28.9869 18.0689 29.0095C18.1942 29.0322 18.323 29.0236 18.4443 28.9844C21.2243 28.0561 23.642 26.2411 25.3443 23.8044C27.1093 21.3589 28.046 18.3889 28.0117 15.347C28.0304 12.8166 27.3821 10.328 26.1351 8.14405Z"
    fill="white" />
</svg>