<svg width="28" height="29" viewBox="0 0 28 29" fill="none" xmlns="http://www.w3.org/2000/svg">
  <path
    d="M14 28.9966C11.2311 28.9966 8.52431 28.1755 6.22202 26.6372C3.91973 25.0988 2.12532 22.9123 1.06569 20.3542C0.00606598 17.796 -0.271181 14.9811 0.269012 12.2653C0.809206 9.54959 2.14258 7.05503 4.10051 5.09709C6.05845 3.13916 8.55301 1.80579 11.2687 1.26559C13.9845 0.725401 16.7994 1.00265 19.3576 2.06227C21.9157 3.1219 24.1022 4.91632 25.6406 7.21861C27.1789 9.52089 28 12.2277 28 14.9966C27.9959 18.7084 26.5196 22.267 23.895 24.8916C21.2704 27.5162 17.7118 28.9925 14 28.9966ZM6.26641 21.2406C7.79685 22.2229 9.57747 22.7443 11.396 22.7428C12.7294 22.7739 14.0534 22.5123 15.2747 21.9763C16.496 21.4402 17.5849 20.6429 18.4646 19.6404C20.0262 17.8645 20.8968 15.5861 20.9174 13.2214C20.9174 13.059 20.9174 12.9176 20.9076 12.7888C21.5637 12.3158 22.1294 11.7287 22.5778 11.0556C21.9669 11.326 21.319 11.5035 20.6556 11.582C21.3518 11.1641 21.8723 10.5073 22.12 9.73399C21.4636 10.1238 20.7453 10.3985 19.9962 10.546C19.5366 10.0582 18.9413 9.71951 18.2871 9.57376C17.633 9.428 16.9501 9.48187 16.3269 9.72841C15.7037 9.97495 15.1688 10.4028 14.7914 10.9566C14.414 11.5105 14.2115 12.1648 14.21 12.835C14.2095 13.0914 14.2386 13.3469 14.2968 13.5966C12.9665 13.5276 11.6655 13.1805 10.4776 12.5776C9.28975 11.9748 8.24147 11.1296 7.40041 10.0966C6.97237 10.8333 6.84124 11.7055 7.03372 12.5354C7.2262 13.3654 7.72781 14.0909 8.43641 14.564C7.90477 14.5468 7.38494 14.4028 6.92021 14.144V14.186C6.92114 14.959 7.1886 15.7081 7.67749 16.3069C8.16638 16.9057 8.84679 17.3176 9.60401 17.4732C9.11156 17.6081 8.59467 17.6277 8.09341 17.5306C8.30686 18.1957 8.72304 18.7774 9.28364 19.1942C9.84425 19.6109 10.5212 19.8418 11.2196 19.8546C9.81669 20.9531 8.03562 21.451 6.26641 21.2392V21.2406Z"
    fill="white" />
</svg>