<svg width="30" height="30" viewBox="0 0 30 30" fill="none" xmlns="http://www.w3.org/2000/svg">
  <circle cx="15" cy="15" r="15" fill="white" />
  <path
    d="M13.6032 22.6684C14.0406 22.6684 14.4343 23.0146 14.4343 23.4905C14.4343 23.9232 14.0843 24.3126 13.6032 24.3126C13.1657 24.3126 12.7721 23.9665 12.7721 23.4905C12.7721 23.0146 13.1657 22.6684 13.6032 22.6684ZM26.463 17.6495C26.0256 17.6495 25.632 17.3034 25.632 16.8274C25.632 16.3948 25.9819 16.0054 26.463 16.0054C26.9004 16.0054 27.2941 16.3515 27.2941 16.8274C27.2941 17.2601 26.9004 17.6495 26.463 17.6495ZM26.463 14.318C25.0633 14.318 23.926 15.4429 23.926 16.8274C23.926 17.087 23.9698 17.3467 24.0573 17.6062L15.7027 22.0195C15.2216 21.3272 14.4343 20.9378 13.6032 20.9378C12.6409 20.9378 11.766 21.5003 11.3286 22.3223L3.80518 18.4283C3.01784 17.9957 2.40547 16.7409 2.49295 15.5295C2.53669 14.9237 2.7554 14.4478 3.06158 14.2747C3.28029 14.1449 3.49899 14.1882 3.80518 14.318C5.81728 15.3564 12.3784 18.7744 12.6409 18.9043C13.0783 19.0773 13.297 19.1638 14.0406 18.8177L27.5128 11.895C27.7315 11.8085 27.9502 11.6354 27.9502 11.3326C27.9502 10.9432 27.5565 10.7701 27.5565 10.7701C26.7692 10.424 25.5882 9.86148 24.4509 9.34229C22.0015 8.21735 19.202 6.91935 17.9773 6.27035C16.9275 5.70788 16.0527 6.18382 15.9214 6.27035C10.3663 9.03942 2.71166 12.7604 2.27424 13.02C1.53065 13.4526 1.0495 14.3612 1.00576 15.4862C0.918272 17.2601 1.83683 19.1206 3.14906 19.7696L11.1099 23.8367C11.2849 25.0481 12.3784 26 13.6032 26C15.0029 26 16.0964 24.9183 16.1402 23.5338L24.8884 18.861C25.3257 19.2071 25.8944 19.3802 26.463 19.3802C27.8627 19.3802 29 18.2552 29 16.8707C29 15.4429 27.8627 14.318 26.463 14.318Z"
    fill="#181A20" />
</svg>
