<svg width="21" height="20" viewBox="0 0 21 20" fill="none" xmlns="http://www.w3.org/2000/svg">
  <path
    d="M10.5 0.000535672C7.74467 -0.0273746 5.09095 1.03638 3.12206 2.958C1.15317 4.87963 0.0302211 7.50189 0 10.2485C0.0106168 12.4191 0.711082 14.5305 2.00079 16.2794C3.29049 18.0283 5.10307 19.3248 7.17818 19.9826C7.70318 20.0778 7.89409 19.7638 7.89409 19.4878V17.7465C4.97318 18.365 4.35273 16.3763 4.35273 16.3763C4.15828 15.752 3.7449 15.2184 3.18818 14.8729C2.23364 14.2449 3.26455 14.2544 3.26455 14.2544C3.59449 14.2984 3.91016 14.4163 4.18789 14.5992C4.46562 14.7821 4.69819 15.0253 4.86818 15.3106C5.16441 15.8227 5.65046 16.1983 6.22174 16.3567C6.79301 16.5151 7.40383 16.4435 7.92273 16.1575C7.97609 15.6364 8.21281 15.151 8.59091 14.7873C6.26182 14.5304 3.81818 13.655 3.81818 9.72515C3.79735 8.70005 4.17732 7.70707 4.87773 6.9562C4.55874 6.07611 4.59641 5.10673 4.98273 4.25387C4.98273 4.25387 5.87045 3.97792 7.84636 5.30055C9.56635 4.84366 11.3764 4.84366 13.0964 5.30055C15.1009 3.97792 15.96 4.25387 15.96 4.25387C16.3463 5.10673 16.384 6.07611 16.065 6.9562C16.7817 7.6933 17.1822 8.67962 17.1818 9.70612C17.1818 13.6454 14.7191 14.5113 12.4091 14.7682C12.662 15.013 12.8574 15.3107 12.9812 15.6397C13.105 15.9688 13.1541 16.3211 13.125 16.6713V19.4783C13.125 19.8113 13.3159 20.0778 13.8409 19.9731C15.9101 19.3112 17.7166 18.0144 19.0023 16.268C20.288 14.5215 20.9872 12.4147 21 10.2485C20.9698 7.50189 19.8468 4.87963 17.8779 2.958C15.909 1.03638 13.2553 -0.0273746 10.5 0.000535672"
    fill="white" />
</svg>
