<svg width="192" height="33" viewBox="0 0 192 33" fill="none" xmlns="http://www.w3.org/2000/svg">
  <path
    d="M131.322 1.90015H114.536C114.315 1.90015 114.103 1.98819 113.947 2.14499C113.791 2.3018 113.703 2.51447 113.703 2.73623C113.703 3.80469 114.126 4.82942 114.878 5.58494C115.631 6.34046 116.651 6.76491 117.715 6.76491H131.322C131.414 6.76516 131.505 6.74673 131.59 6.71081C131.674 6.67489 131.751 6.62219 131.814 6.55585C131.882 6.48894 131.935 6.40895 131.971 6.32075C132.007 6.23255 132.024 6.13801 132.023 6.04279V2.62221C132.025 2.52829 132.009 2.43484 131.975 2.34733C131.941 2.25982 131.89 2.18006 131.824 2.11275C131.759 2.04543 131.681 1.99193 131.595 1.95541C131.509 1.9189 131.416 1.90011 131.322 1.90015Z"
    fill="black" />
  <path
    d="M105.433 1.90025H101.818C101.724 1.90021 101.632 1.919 101.546 1.95551C101.459 1.99203 101.381 2.04553 101.316 2.11285C101.251 2.18016 101.2 2.25992 101.165 2.34743C101.131 2.43494 101.115 2.52839 101.118 2.62231V13.6251L101.439 21.9674L89.7058 3.78153C89.3369 3.19971 88.828 2.72062 88.226 2.38849C87.624 2.05635 86.9483 1.88189 86.2614 1.88123H83.5362C83.4427 1.88119 83.35 1.89998 83.2638 1.93649C83.1776 1.97301 83.0995 2.02651 83.0342 2.09383C82.9689 2.16114 82.9178 2.2409 82.8837 2.32841C82.8497 2.41592 82.8334 2.50943 82.8359 2.60335V29.0175C82.8359 29.204 82.9097 29.3828 83.041 29.5147C83.1724 29.6466 83.3505 29.7206 83.5362 29.7206H87.1698C87.3573 29.7157 87.5354 29.6374 87.6662 29.5025C87.797 29.3676 87.8701 29.1868 87.8701 28.9985V17.9957L87.4916 9.61547L99.2441 27.8394C99.61 28.4197 100.116 28.898 100.714 29.2301C101.313 29.5623 101.986 29.7376 102.67 29.7397H105.414C105.603 29.7348 105.783 29.6572 105.917 29.5228C106.051 29.3884 106.128 29.2075 106.133 29.0175V2.60335C106.12 2.42125 106.042 2.24996 105.913 2.12085C105.785 1.99175 105.614 1.91346 105.433 1.90025Z"
    fill="black" />
  <path
    d="M154.903 2.47029C154.836 2.30334 154.721 2.16011 154.573 2.05866C154.425 1.95721 154.25 1.90209 154.07 1.90022H149.282C149.097 1.89442 148.913 1.94593 148.758 2.04787C148.602 2.14981 148.481 2.29726 148.412 2.47029L138.268 28.7895C138.255 28.8649 138.255 28.9421 138.268 29.0175C138.268 29.209 138.344 29.3927 138.478 29.5281C138.613 29.6636 138.796 29.7396 138.987 29.7396H142.772C142.917 29.7372 143.059 29.6929 143.179 29.6121C143.3 29.5312 143.395 29.4171 143.453 29.2835L151.705 7.65814L159.862 29.2835C159.915 29.4201 160.01 29.5369 160.131 29.6184C160.253 29.6999 160.397 29.7422 160.543 29.7396H164.328H164.555C164.645 29.7078 164.728 29.6583 164.798 29.5941C164.869 29.5298 164.926 29.4522 164.967 29.3655C165.007 29.2789 165.03 29.185 165.034 29.0894C165.038 28.9937 165.023 28.8982 164.99 28.8084L154.903 2.47029Z"
    fill="black" />
  <path
    d="M191.543 28.5803L184.256 19.2499C186.182 18.8958 187.911 17.8457 189.118 16.298C190.324 14.7503 190.924 12.8123 190.804 10.8506C190.804 5.32067 187.152 1.90015 181.342 1.90015H170.744C170.506 1.90009 170.278 1.99356 170.108 2.16053C169.938 2.32751 169.84 2.55463 169.835 2.79323C169.84 3.84504 170.259 4.85239 170.999 5.59613C171.74 6.33988 172.743 6.75992 173.791 6.76491H180.907C184.029 6.76491 185.827 8.26612 185.827 10.8885C185.827 13.511 184.029 15.0692 180.907 15.0692H170.744C170.504 15.0741 170.276 15.1717 170.107 15.3417C169.937 15.5118 169.84 15.7409 169.835 15.9813V29.0554C169.835 29.2469 169.911 29.4306 170.046 29.566C170.181 29.7015 170.364 29.7775 170.554 29.7775H174.112C174.303 29.7775 174.486 29.7015 174.621 29.566C174.756 29.4306 174.832 29.2469 174.832 29.0554V19.5539H178.503L184.994 28.0673C185.379 28.5669 185.872 28.972 186.436 29.2519C187 29.5318 187.62 29.679 188.25 29.6826H191.032C191.126 29.6777 191.219 29.6542 191.304 29.6133C191.389 29.5725 191.466 29.515 191.529 29.4444C191.593 29.3738 191.641 29.2914 191.673 29.2018C191.704 29.1122 191.718 29.0172 191.713 28.9224C191.68 28.7978 191.622 28.6813 191.543 28.5803Z"
    fill="black" />
  <path
    d="M131.322 24.8749H118.756V18.0148H130.338C130.524 18.0148 130.702 17.9407 130.833 17.8088C130.965 17.677 131.039 17.4981 131.039 17.3117V13.8531C131.041 13.7592 131.025 13.6657 130.991 13.5782C130.957 13.4907 130.906 13.411 130.84 13.3436C130.775 13.2763 130.697 13.2228 130.611 13.1863C130.525 13.1498 130.432 13.1309 130.338 13.131H114.555C114.317 13.136 114.091 13.2342 113.925 13.4048C113.758 13.5753 113.665 13.8045 113.665 14.0431V28.8465C113.663 28.9654 113.684 29.0836 113.727 29.1941C113.771 29.3047 113.836 29.4054 113.919 29.4903C114.002 29.5753 114.101 29.6428 114.21 29.6889C114.319 29.735 114.436 29.7586 114.555 29.7586H131.285C131.378 29.7587 131.471 29.7399 131.557 29.7034C131.643 29.6668 131.721 29.6133 131.787 29.546C131.852 29.4787 131.903 29.399 131.937 29.3114C131.971 29.2239 131.987 29.1305 131.985 29.0366V25.597C131.99 25.4136 131.924 25.2356 131.8 25.1007C131.676 24.9657 131.505 24.8847 131.322 24.8749Z"
    fill="black" />
  <path
    d="M64.9894 24.5327H52.669C52.669 24.5327 52.5366 24.5327 52.5366 24.4187V2.64123C52.5391 2.54482 52.5224 2.44886 52.4874 2.35904C52.4524 2.26923 52.3998 2.18739 52.3328 2.11831C52.2658 2.04923 52.1856 1.99434 52.0971 1.95686C52.0086 1.91939 51.9135 1.90011 51.8174 1.90015H48.0324C47.9363 1.90011 47.8413 1.91939 47.7528 1.95686C47.6642 1.99434 47.5841 2.04923 47.5171 2.11831C47.45 2.18739 47.3975 2.26923 47.3624 2.35904C47.3274 2.44886 47.3107 2.54482 47.3132 2.64123V28.9414C47.3107 29.0453 47.3289 29.1487 47.3668 29.2454C47.4046 29.3421 47.4614 29.4303 47.5337 29.5047C47.606 29.5791 47.6924 29.6382 47.7878 29.6785C47.8832 29.7188 47.9857 29.7396 48.0892 29.7396H64.9326C65.051 29.7396 65.1682 29.7159 65.2774 29.6698C65.3866 29.6237 65.4855 29.5562 65.5684 29.4713C65.6512 29.3863 65.7163 29.2856 65.7599 29.175C65.8035 29.0644 65.8246 28.9463 65.8221 28.8274V25.4449C65.8229 25.2156 65.7377 24.9944 65.5833 24.8253C65.429 24.6563 65.217 24.5518 64.9894 24.5327Z"
    fill="black" />
  <path
    d="M74.8497 8.53223H71.0646C70.6779 8.53223 70.3644 8.84702 70.3644 9.23534V29.0175C70.3644 29.4058 70.6779 29.7206 71.0646 29.7206H74.8497C75.2364 29.7206 75.5499 29.4058 75.5499 29.0175V9.23534C75.5499 8.84702 75.2364 8.53223 74.8497 8.53223Z"
    fill="black" />
  <path
    d="M74.3765 1.90015H71.5377C70.8897 1.90015 70.3644 2.42764 70.3644 3.07833V5.92879C70.3644 6.57948 70.8897 7.10697 71.5377 7.10697H74.3765C75.0246 7.10697 75.5499 6.57948 75.5499 5.92879V3.07833C75.5499 2.42764 75.0246 1.90015 74.3765 1.90015Z"
    fill="black" />
  <path
    d="M35.1062 4.14276C35.1166 3.44054 34.9483 2.74724 34.6171 2.12867C34.2859 1.51011 33.8028 0.986744 33.2137 0.608164C32.6048 0.241361 31.9082 0.0476074 31.1982 0.0476074C30.4882 0.0476074 29.7915 0.241361 29.1826 0.608164L20.8934 5.24491C20.819 5.29082 20.7576 5.35507 20.715 5.43158C20.6724 5.5081 20.65 5.59434 20.65 5.682C20.65 5.76965 20.6724 5.85584 20.715 5.93235C20.7576 6.00886 20.819 6.07312 20.8934 6.11903L34.3114 13.7202C34.3868 13.764 34.4725 13.7869 34.5597 13.7865C34.6469 13.7861 34.7324 13.7624 34.8074 13.718C34.8825 13.6735 34.9445 13.6098 34.987 13.5334C35.0295 13.457 35.0511 13.3707 35.0494 13.2832L35.1062 4.14276Z"
    fill="url(#paint0_linear_19_590)" />
  <path
    d="M0.0756882 28.8846C0.0583504 29.5906 0.223599 30.2891 0.555287 30.9119C0.886976 31.5347 1.37378 32.0606 1.96821 32.4381C2.57266 32.7976 3.26226 32.9874 3.96481 32.9874C4.66735 32.9874 5.35698 32.7976 5.96143 32.4381L14.1561 27.7444C14.2353 27.7024 14.3016 27.6395 14.3479 27.5625C14.3942 27.4855 14.4186 27.3972 14.4186 27.3073C14.4186 27.2173 14.3942 27.1291 14.3479 27.0521C14.3016 26.9751 14.2353 26.9122 14.1561 26.8702L0.756997 19.269C0.680119 19.2266 0.593663 19.2047 0.505936 19.2056C0.418208 19.2064 0.332171 19.2299 0.256115 19.2738C0.18006 19.3178 0.116532 19.3806 0.0716742 19.4563C0.0268165 19.532 0.00214419 19.618 0 19.7061L0.0756882 28.8846Z"
    fill="url(#paint1_linear_19_590)" />
  <path
    d="M35.1062 28.9986C35.108 29.6982 34.9267 30.3859 34.5804 30.9929C34.2341 31.5999 33.735 32.1049 33.1331 32.4571C32.5312 32.8094 31.8476 32.9965 31.1509 32.9999C30.4542 33.0032 29.7689 32.8226 29.1637 32.4762L1.1354 16.4566C0.799 16.2684 0.519453 15.9926 0.326252 15.6581C0.13305 15.3236 0.0333594 14.943 0.0377358 14.5563V4.00967C0.0427125 2.94779 0.465025 1.93079 1.21282 1.17992C1.96062 0.429045 2.97342 0.00499717 4.03096 0C4.69551 0.0201893 5.34512 0.202826 5.92348 0.532082L34.0275 16.6467C34.3577 16.8403 34.6313 17.1179 34.8206 17.4515C35.01 17.7852 35.1085 18.163 35.1062 18.547V28.9986Z"
    fill="url(#paint2_linear_19_590)" />
  <defs>
    <linearGradient id="paint0_linear_19_590" x1="27.3469" y1="2.75551" x2="31.2939" y2="15.6875"
      gradientUnits="userSpaceOnUse">
      <stop stop-color="#1BB3CC" />
      <stop offset="0.99" stop-color="#A626CC" />
    </linearGradient>
    <linearGradient id="paint1_linear_19_590" x1="0.946261" y1="19.9531" x2="7.25111" y2="32.9671"
      gradientUnits="userSpaceOnUse">
      <stop stop-color="#1CB1CC" />
      <stop offset="1" stop-color="#8B41CC" />
    </linearGradient>
    <linearGradient id="paint2_linear_19_590" x1="1.89246" y1="1.9003" x2="33.251" y2="34.0769"
      gradientUnits="userSpaceOnUse">
      <stop stop-color="#1BB3CC" />
      <stop offset="1" stop-color="#824ACC" />
    </linearGradient>
  </defs>
</svg>
