<svg width="20" height="20" viewBox="0 0 20 20" fill="none" xmlns="http://www.w3.org/2000/svg">
  <path
    d="M18.3929 0H1.60714C0.71875 0 0 0.71875 0 1.60714V18.3929C0 19.2813 0.71875 20 1.60714 20H18.3929C19.2813 20 20 19.2813 20 18.3929V1.60714C20 0.71875 19.2813 0 18.3929 0ZM16.7567 6.50223H16.2165C16.1205 6.50223 16.0156 6.55804 15.904 6.66964C15.7924 6.78125 15.7366 6.8817 15.7366 6.97321V13.6741C15.7366 13.7656 15.7902 13.8616 15.8996 13.9598C16.0089 14.058 16.1138 14.1071 16.2143 14.1071H16.7545V15.6964H11.8705V14.1071H12.8906V7.06473H12.8438L10.4554 15.6987H8.60714L6.25 7.06473H6.18973V14.1071H7.21652V15.6964H3.125V14.1071H3.64955C3.7567 14.1071 3.86607 14.058 3.97768 13.9598C4.08929 13.8616 4.14509 13.7656 4.14509 13.6741V6.97321C4.14509 6.8817 4.08929 6.78125 3.97768 6.66964C3.86607 6.55804 3.7567 6.50223 3.64955 6.50223H3.125V4.91071H8.23661L9.91741 11.1562H9.96205L11.6585 4.91071H16.7545V6.50223H16.7567Z"
    fill="white" />
</svg>
