<svg width="82" height="97" viewBox="0 0 82 97" fill="none" xmlns="http://www.w3.org/2000/svg">
  <path d="M61.5705 46.3831L54.5924 50.0774L61.6913 54.6839L69.1564 50.3739L61.5705 46.3831Z"
    fill="url(#paint0_linear_19_548)" />
  <path d="M32.8376 4.51516V13.135L39.8156 9.03034V0.410461L32.8376 4.51516Z" fill="url(#paint1_linear_19_548)" />
  <path d="M39.8157 0.410461V9.03034L61.5706 21.7549V46.3831L68.9591 50.4878V16.8293L39.8157 0.410461Z"
    fill="url(#paint2_linear_19_548)" />
  <path d="M39.8156 9.03033L33.248 13.135L54.5925 25.4491L61.5705 21.7549L39.8156 9.03033Z"
    fill="url(#paint3_linear_19_548)" />
  <path d="M61.5706 21.7549L54.5926 25.4492L54.5926 50.2851L61.5705 46.3831L61.5706 21.7549Z"
    fill="url(#paint4_linear_19_548)" />
  <path d="M25.0386 17.2398L16.8292 13.5455L10.6721 17.2398V50.0774L18.0606 46.3831V21.3445L25.0386 17.2398Z"
    fill="url(#paint5_linear_19_548)" />
  <path d="M47.204 62.8019L39.8155 66.9066L10.6721 50.0773L18.0606 46.3831L47.204 62.8019Z"
    fill="url(#paint6_linear_19_548)" />
  <path
    d="M25.0388 17.2397L33.2482 20.934L25.0388 25.4492V42.6889L47.6146 55.4135L47.2042 62.8019L18.0608 46.3831V21.3444L25.0388 17.2397Z"
    fill="url(#paint7_linear_19_548)" />
  <path
    d="M40.2261 25.0387L32.4272 20.934L25.4492 25.4491L40.2261 33.6585L55.0031 25.4491L47.6146 20.934L40.2261 25.0387Z"
    fill="url(#paint8_linear_19_548)" />
  <path d="M40.2262 33.6586L25.4493 25.4492L25.0388 33.6586L39.8157 42.2784L40.2262 33.6586Z" fill="#5FB7DB" />
  <path d="M39.8158 33.6586L55.0032 25.4492L54.5927 34.069L39.8158 42.2784V33.6586Z" fill="#E86391" />
  <path
    d="M39.9331 67.3354L39.8093 67.264L10.5894 50.4253V16.9427L10.7132 16.8712L39.9299 0L40.0537 0.0715048L69.2023 16.8518L69.1308 50.7567L61.3069 46.4584L61.294 21.634L39.9331 9.28193L33.4646 13.0571L54.7956 25.172L55.008 50.3116L46.6984 55.2011L24.8592 42.758L24.895 25.471L32.2138 21.2344L25.2565 17.6835L18.6021 21.6567L18.5761 46.2018L47.8969 62.6539L39.9331 67.342V67.3354ZM11.0844 50.1427L39.9331 66.7669L46.914 62.6604L18.0842 46.4877L18.1102 21.3741L25.237 17.1182L33.2436 21.2052L25.3868 25.7504L25.3543 42.4689L46.6952 54.6261L54.5128 50.0257L54.3079 25.4546L32.4774 13.0603L39.9299 8.7101L61.7892 21.3514L61.802 46.1693L68.642 49.9249L68.7103 17.1344L39.9331 0.568521L11.0812 17.2286V50.1427H11.0844Z"
    fill="#010101" />
  <path
    d="M25.2499 17.677L25.1326 17.6185L17.146 13.5964L17.3674 13.1578L25.2401 17.1182L32.7249 12.9141L32.6961 4.32095L33.1913 4.31775L33.2169 13.2033L25.2499 17.677Z"
    fill="#010101" />
  <path d="M40.1775 0.282715H39.6855V8.99613H40.1775V0.282715Z" fill="#010101" />
  <path
    d="M39.8977 33.9503L39.7803 33.8821L25.0217 25.8249L25.2595 25.3929L39.8945 33.3851L61.4241 21.2798L61.6653 21.7087L39.8977 33.9503Z"
    fill="#010101" />
  <path
    d="M39.8947 42.5956L25.0154 33.8789L25.2662 33.4565L39.9011 42.0271L54.5031 33.9341L54.7433 34.363L39.8947 42.5956Z"
    fill="#010101" />
  <path d="M54.5723 42.4609L39.9041 50.9012L40.1495 51.3262L54.8177 42.8859L54.5723 42.4609Z" fill="#010101" />
  <path
    d="M47.2617 63.0633L47.2553 55.5032L46.6982 55.1946L40.3631 58.8462L40.1155 58.4206L46.6918 54.6293L47.7473 55.214L47.7537 62.212L68.7657 50.1296L69.01 50.5553L47.2617 63.0633Z"
    fill="#010101" />
  <path
    d="M61.6461 54.6455L54.2063 50.2595L61.4337 46.101L61.6781 46.5266L55.1839 50.2627L61.8969 54.2231L61.6461 54.6455Z"
    fill="#010101" />
  <path d="M54.8232 50.0558L54.5681 50.4754L61.5575 54.7005L61.8115 54.281L54.8232 50.0558Z" fill="#010101" />
  <path d="M18.2172 46.1199L10.7251 50.0649L10.9548 50.4987L18.4468 46.5538L18.2172 46.1199Z" fill="#010101" />
  <path
    d="M39.8979 25.3019L32.2266 21.2279L39.7122 16.7477L39.9662 17.17L33.2266 21.2052L39.8979 24.7431L47.041 20.8997L47.2747 21.3319L39.8979 25.3019Z"
    fill="#010101" />
  <path
    d="M14.2893 75.6071C14.0905 75.9547 13.9896 76.1269 13.8951 76.3023C12.3154 79.262 10.7422 82.225 9.14942 85.1782C9.04195 85.3764 8.78133 85.6428 8.62177 85.6233C8.40352 85.5973 8.13318 85.3732 8.0192 85.162C6.4003 82.1762 4.80103 79.1808 3.19857 76.1887C3.10401 76.0132 2.99985 75.8475 2.81095 75.5291C2.42983 79.0119 1.68714 82.2932 1.74583 85.7078H0.270264C0.905488 81.39 1.5374 77.0724 2.17572 72.7481C3.18224 72.5402 3.2181 72.5564 3.69035 73.4434C5.3417 76.5266 6.99316 79.6097 8.64781 82.6928C8.75208 82.8878 8.86926 83.0795 9.0159 83.3361C9.1429 83.1217 9.25038 82.9625 9.33832 82.7935C11.0288 79.6161 12.7324 76.442 14.4001 73.2517C14.6834 72.7091 15.0123 72.5532 15.5758 72.7514C16.1947 77.0821 16.8103 81.403 17.4259 85.7143H15.5758C15.1491 82.3712 14.729 79.0834 14.2893 75.6071Z"
    fill="#010101" />
  <path
    d="M45.0046 72.7058H47.3366C47.6333 74.8175 48.6856 76.6466 49.3953 78.5959C49.9332 80.0741 50.549 81.5231 51.1744 83.0956C51.295 82.8162 51.3857 82.6277 51.4572 82.4361C52.4017 79.9312 53.3398 77.4231 54.3014 74.9247C54.3761 74.7266 54.6301 74.5933 54.7987 74.4309C54.9524 74.5933 55.1669 74.7266 55.2491 74.9183C56.3004 77.4263 57.3335 79.941 58.3687 82.4523C58.4605 82.6765 58.5608 82.9006 58.7113 83.2516C60.0432 79.6648 61.7273 76.3412 62.8255 72.6733H64.3559C64.0272 73.3881 63.7081 74.0346 63.4274 74.7006C61.9066 78.2971 60.3954 81.8968 58.8778 85.4932C58.77 85.7467 58.7305 86.0228 58.3238 86.0261C57.9194 86.0293 57.8639 85.7661 57.7571 85.5062C56.7401 83.0501 55.724 80.594 54.708 78.141C54.6333 77.9592 54.5479 77.7772 54.4113 77.4719C54.2288 77.9365 54.089 78.2808 53.9556 78.6317C53.089 80.9254 52.2331 83.2255 51.3494 85.5127C51.2715 85.7109 51.0602 85.9221 50.8585 85.9935C50.4807 86.13 50.3921 85.7888 50.2875 85.5224C48.9236 82.1274 47.5682 78.7291 46.1903 75.3374C45.8392 74.4666 45.4219 73.6252 45.0046 72.7026V72.7058Z"
    fill="#010101" />
  <path
    d="M77.4435 80.4413C77.8757 80.5941 78.1884 80.6883 78.4851 80.815C79.4392 81.2243 80.0027 81.9293 80.0059 82.9852C80.0059 84.0541 79.5897 84.954 78.5566 85.3373C77.785 85.6232 76.9344 85.7564 76.1073 85.8247C75.1105 85.9059 74.1041 85.8442 73.1436 85.8442V75.9417C74.3293 75.9417 75.626 75.841 76.8992 75.9677C78.5897 76.1366 79.4883 77.4621 79.0721 78.9307C78.8501 79.7169 78.2706 80.1327 77.4435 80.4413ZM74.8437 85.1522C75.5022 85.1522 76.0358 85.2009 76.5598 85.1424C77.6388 85.0158 78.1884 84.3238 78.2215 83.1477C78.2535 81.9391 77.7295 81.1853 76.6548 81.0099C76.1756 80.932 75.674 80.9677 75.1863 81.0033C75.0657 81.0132 74.8661 81.2146 74.8629 81.3283C74.8405 82.5693 74.8501 83.8136 74.8501 85.1522H74.8437ZM74.88 80.3342C75.8149 80.4024 76.6868 80.3763 77.182 79.5025C77.6324 78.7064 77.6281 77.8358 77.0817 77.0723C76.5246 76.2958 75.7135 76.4193 74.88 76.5915V80.3342Z"
    fill="#010101" />
  <path
    d="M45.2266 85.7176H43.1583C42.757 84.7689 42.3952 83.8689 41.9854 82.9885C41.9139 82.8358 41.6567 82.6864 41.4806 82.6831C40.2106 82.6603 38.9395 82.6702 37.6663 82.6929C37.5126 82.6929 37.2821 82.7903 37.2266 82.9073C36.8029 83.8007 36.4123 84.7136 35.9725 85.7111H34.7153C35.6566 83.8137 36.5915 81.9391 37.5168 80.0581C38.1487 78.7747 38.7538 77.4784 39.4059 76.2082C39.5126 76.0002 39.7773 75.7696 39.9918 75.75C40.1551 75.7338 40.4219 75.997 40.5158 76.1952C41.757 78.7488 42.9726 81.3153 44.2095 83.8689C44.5094 84.4862 44.868 85.0742 45.2224 85.7208L45.2266 85.7176ZM37.7122 81.8904H41.4966C40.868 80.5551 40.2757 79.2913 39.6268 77.9138C38.9566 79.3076 38.344 80.5778 37.7122 81.8904Z"
    fill="#010101" />
  <path
    d="M19.7289 85.7565V75.932H25.2726C25.1651 76.2211 25.0608 76.4973 24.9925 76.676H21.465V80.2595C22.5138 80.2075 23.543 80.1587 24.6245 80.1068C24.556 80.4512 24.4974 80.7436 24.429 81.0847C23.4388 81.0262 22.4682 80.971 21.4617 80.9125V85.097C22.7515 84.9638 24.0186 84.8338 25.2791 84.7006C25.2921 84.7201 25.315 84.7364 25.315 84.7494C25.2042 85.7728 25.2042 85.763 24.1522 85.7597C22.6571 85.7532 21.1588 85.7597 19.7256 85.7597L19.7289 85.7565Z"
    fill="#010101" />
  <path
    d="M67.0558 80.2659C68.1145 80.2106 69.1305 80.1586 70.202 80.1034L70.0227 81.0846C69.0366 81.0261 68.0654 80.9709 67.0526 80.9091V85.0937C68.329 84.9605 69.5958 84.8305 70.9117 84.694C70.8605 85.0254 70.8082 85.3567 70.7495 85.7239H65.3162V75.9384H70.8498C70.7495 76.2145 70.6513 76.4907 70.583 76.6759H67.0558V80.2659Z"
    fill="#010101" />
  <path
    d="M35.0055 75.9645C35.0567 76.2959 35.1122 76.6272 35.1677 76.9748C33.9564 76.8384 32.7899 76.7084 31.6042 76.5753V85.7175H29.7995V76.5883C28.6628 76.7118 27.4771 76.8384 26.2263 76.9716C26.2722 76.6695 26.3213 76.3381 26.3768 75.9645H35.0087H35.0055Z"
    fill="#010101" />
  <path
    d="M0.00331397 88.164H1.14334C2.07814 90.3081 2.99661 92.4106 3.97378 94.6518C4.92811 92.4298 5.82065 90.3476 6.75865 88.164C6.75865 88.164 6.9183 88.1416 7.07466 88.1341C7.21468 88.1309 7.35802 88.148 7.56976 88.1576C7.37104 88.576 7.18544 88.9538 7.01276 89.3337C6.05192 91.4554 5.10079 93.576 4.13013 95.6945C4.05852 95.8503 3.87933 96.0093 3.72298 96.0488C3.63835 96.068 3.44283 95.8567 3.37772 95.7137C2.25402 93.2227 1.14334 90.7275 0 88.164H0.00331397Z"
    fill="#010101" />
  <path
    d="M31.4612 90.0541C32.0834 90.0541 32.696 90.0477 33.3075 90.0541C34.3406 90.068 35.0343 90.4895 35.2595 91.2377C35.4836 91.9815 35.1944 92.5952 34.2392 93.2836C34.8817 94.1384 35.5231 94.9965 36.1549 95.8375C35.2136 96.0488 35.125 96.0157 34.5583 95.211C34.2755 94.8108 33.9596 94.4277 33.712 94.0082C33.4388 93.544 33.0962 93.3167 32.5231 93.5141V95.8802H31.4644V90.0509L31.4612 90.0541ZM32.5039 93.0659C33.3833 93.1609 33.855 92.972 34.109 92.4618C34.3662 91.9517 34.3043 91.0712 33.9692 90.7137C33.5391 90.2558 33.0215 90.3764 32.5039 90.4639V93.0659Z"
    fill="#010101" />
  <path
    d="M51.4017 94.6945C51.3174 95.607 50.8158 96.0328 49.9854 96.0029C49.0922 95.9677 48.1647 95.9965 47.3237 95.7532C45.5158 95.2238 44.4806 93.5696 44.6492 91.7574C44.8285 89.8535 46.1903 88.3625 48.0601 88.1053C48.6823 88.021 49.3269 88.0466 49.9556 88.1053C50.8873 88.196 50.9428 88.2836 51.1808 89.2878C50.2949 88.655 49.3494 88.3721 48.2843 88.5504C46.9363 88.7777 45.9651 89.6646 45.8552 91.0168C45.7901 91.8119 45.868 92.6667 46.0996 93.4266C46.741 95.5451 49.503 96.3637 51.4049 94.687L51.4017 94.6945Z"
    fill="#010101" />
  <path
    d="M17.2992 90.1032H17.9083V95.909L17.7356 96.0232C16.3253 94.6454 14.9182 93.2676 13.4166 91.799V95.8706H12.762V89.9218C13.6479 90.6325 14.3189 91.3967 15.0485 92.0947C15.7814 92.7969 16.498 93.5152 17.2992 94.3039V90.1V90.1032Z"
    fill="#010101" />
  <path
    d="M71.4436 95.8866H70.7339C70.9452 95.48 71.1437 95.1129 71.3262 94.7361C72.0263 93.3071 72.7136 91.8738 73.4276 90.4511C73.5247 90.259 73.7264 90.116 73.8801 89.9538C74.0167 90.1096 74.196 90.2494 74.2835 90.4287C75.1598 92.2217 76.0231 94.0243 76.909 95.8631H75.8182C75.4991 95.2623 75.3294 94.4469 74.8471 94.1673C74.339 93.8749 73.5343 94.083 72.8609 94.0958C71.6784 94.1192 71.9911 95.2825 71.4468 95.8866H71.4436ZM73.6613 91.2569C73.2547 92.1011 72.8993 92.8386 72.5247 93.6187H74.7627C74.3977 92.8354 74.0594 92.1107 73.6581 91.2569H73.6613Z"
    fill="#010101" />
  <path
    d="M52.3952 95.8866H51.7441C52.6822 93.9666 53.6001 92.085 54.5286 90.211C54.5809 90.1032 54.7602 89.9474 54.8189 89.9698C54.9651 90.0253 55.1284 90.1491 55.1967 90.2857C55.7474 91.4031 56.2714 92.5301 56.8125 93.6507C57.1636 94.3785 57.535 95.1 57.9256 95.8738H56.7698C56.4955 95.2921 56.3589 94.4052 55.9128 94.2003C55.2682 93.9047 54.3792 94.0018 53.6236 94.1192C52.7047 94.259 52.9395 95.2793 52.3984 95.8834L52.3952 95.8866ZM53.5222 93.5931H55.7399C55.3653 92.7969 55.027 92.069 54.6428 91.2537C54.2426 92.0914 53.8936 92.8161 53.5222 93.5931Z"
    fill="#010101" />
  <path
    d="M24.7939 90.1032H25.8562C25.8562 91.3252 25.853 92.5205 25.8562 93.719C25.8626 95.211 27.0344 95.9581 28.4197 95.3668C29.0899 95.0808 29.2724 94.5152 29.2692 93.8684C29.2628 92.7446 29.2233 91.6208 29.1977 90.4959C29.1977 90.3796 29.1977 90.259 29.1977 90.1064H29.79C29.79 91.5226 29.8135 92.9068 29.774 94.291C29.7644 94.6123 29.5883 94.9666 29.3994 95.2398C28.8882 95.9741 27.5104 96.2441 26.3311 95.893C25.4197 95.623 24.9373 94.973 24.9079 93.9111C24.8787 92.9303 24.8884 91.9484 24.8689 90.9676C24.8657 90.704 24.8233 90.4415 24.7939 90.1V90.1032Z"
    fill="#010101" />
  <path
    d="M58.7827 90.0744C59.5319 90.0744 60.3099 90.0253 61.0794 90.0872C61.945 90.1555 62.5117 90.7275 62.6227 91.5034C62.7368 92.306 62.3494 93.0925 61.5671 93.3882C61.0303 93.5931 60.4273 93.6379 59.8179 93.7617V95.8706H58.7859V90.0744H58.7827ZM59.7635 93.2324C60.4113 93.3615 60.9556 93.3167 61.3035 92.7841C61.6878 92.1961 61.691 91.5461 61.3879 90.9186C61.1445 90.4148 60.6685 90.3401 60.1829 90.4287C60.0271 90.4575 59.7891 90.6624 59.7827 90.799C59.7432 91.5877 59.7635 92.3807 59.7635 93.2356V93.2324Z"
    fill="#010101" />
  <path
    d="M38.0675 95.5162C38.8061 95.4447 39.5136 95.3764 40.2724 95.3017L40.2426 95.9026H37.0056V90.1H40.2234C40.2394 90.4639 40.0867 90.5877 39.7089 90.545C39.1678 90.4863 38.6236 90.4863 38.0504 90.4607V92.6475C38.6662 92.6208 39.249 92.5952 39.885 92.5664L39.7836 93.1438C39.2041 93.1053 38.6566 93.0723 38.0675 93.0338V95.5162Z"
    fill="#010101" />
  <path
    d="M10.9215 93.1448C10.2928 93.1054 9.74564 93.0701 9.1626 93.0338V95.5067C9.91501 95.4384 10.6512 95.3732 11.4427 95.3017L11.3384 95.893H8.14307V90.0904H11.3058C11.2603 90.5653 11.2603 90.5578 10.8628 90.5386C10.2993 90.5098 9.73913 90.4863 9.1626 90.4607V92.6475C9.7815 92.6176 10.3645 92.592 10.9965 92.5632L10.9247 93.1416L10.9215 93.1448Z"
    fill="#010101" />
  <path
    d="M65.7068 90.6753L65.7986 90.0808H70.8925L70.9907 90.6721C70.2735 90.6038 69.5926 90.5419 68.8829 90.4736V95.877H67.8146V90.4832C67.1433 90.5451 66.4667 90.607 65.7068 90.6753Z"
    fill="#010101" />
  <path
    d="M20.882 95.8599V90.4799C20.2012 90.545 19.5205 90.6069 18.7876 90.6752L18.843 90.1H23.9698C23.9926 90.2793 24.0121 90.4511 24.0381 90.6688C23.3184 90.6037 22.6409 90.5418 21.9536 90.4799V95.8599H20.882Z"
    fill="#010101" />
  <path
    d="M77.782 95.8962V90.1064H78.8503V95.5034C79.5995 95.4319 80.3359 95.3604 81.1139 95.2857L81.0168 95.8962H77.782Z"
    fill="#010101" />
  <path d="M64.7721 95.8898H63.7241V90.1096H64.7721V95.8898Z" fill="#010101" />
  <defs>
    <linearGradient id="paint0_linear_19_548" x1="69.4568" y1="49.2525" x2="56.3297" y2="51.1438"
      gradientUnits="userSpaceOnUse">
      <stop stop-color="#C55B74" />
      <stop offset="1" stop-color="#7C31C5" />
    </linearGradient>
    <linearGradient id="paint1_linear_19_548" x1="38.9947" y1="-0.410479" x2="34.0691" y2="11.9036"
      gradientUnits="userSpaceOnUse">
      <stop stop-color="#C55B74" />
      <stop offset="1" stop-color="#7C31C5" />
    </linearGradient>
    <linearGradient id="paint2_linear_19_548" x1="40.6366" y1="1.64187" x2="68.9591" y2="50.8983"
      gradientUnits="userSpaceOnUse">
      <stop stop-color="#BC74D1" />
      <stop offset="1" stop-color="#382DAA" />
    </linearGradient>
    <linearGradient id="paint3_linear_19_548" x1="35.7109" y1="11.0827" x2="57.8763" y2="23.3968"
      gradientUnits="userSpaceOnUse">
      <stop stop-color="#75A8E3" />
      <stop offset="1" stop-color="#66D3D9" />
    </linearGradient>
    <linearGradient id="paint4_linear_19_548" x1="58.0039" y1="25.3244" x2="58.4223" y2="50.6773"
      gradientUnits="userSpaceOnUse">
      <stop stop-color="#EA707F" />
      <stop offset="1" stop-color="#E65F97" />
    </linearGradient>
    <linearGradient id="paint5_linear_19_548" x1="17.8553" y1="13.5455" x2="17.8553" y2="50.0774"
      gradientUnits="userSpaceOnUse">
      <stop stop-color="#FE9A9A" />
      <stop offset="1" stop-color="#E66097" />
    </linearGradient>
    <linearGradient id="paint6_linear_19_548" x1="15.1873" y1="46.7936" x2="42.6888" y2="65.2647"
      gradientUnits="userSpaceOnUse">
      <stop stop-color="#6182E0" />
      <stop offset="1" stop-color="#64CCDA" />
    </linearGradient>
    <linearGradient id="paint7_linear_19_548" x1="26.065" y1="17.2397" x2="26.065" y2="53.7716"
      gradientUnits="userSpaceOnUse">
      <stop stop-color="#B56FCF" />
      <stop offset="1" stop-color="#3C2FAA" />
    </linearGradient>
    <linearGradient id="paint8_linear_19_548" x1="40.2261" y1="20.934" x2="40.2261" y2="33.6585"
      gradientUnits="userSpaceOnUse">
      <stop stop-color="#513AB1" />
      <stop offset="1" stop-color="#362CA9" />
    </linearGradient>
  </defs>
</svg>
