<svg width="43" height="40" viewBox="0 0 43 40" fill="none" xmlns="http://www.w3.org/2000/svg">
  <path d="M40.0511 1L23.9958 12.8765L26.9894 5.87522L40.0511 1Z" fill="#E17726" stroke="#E17726" stroke-width="0.25"
    stroke-linecap="round" stroke-linejoin="round" />
  <path
    d="M3.02822 1L18.9368 12.9742L16.0899 5.88744L3.02822 1ZM34.2712 28.5285L29.9947 35.0532L39.1464 37.5703L41.7612 28.6751L34.2712 28.5285ZM1.32983 28.6751L3.9324 37.5703L13.0597 35.0532L8.80762 28.5285L1.32983 28.6751Z"
    fill="#E27625" stroke="#E27625" stroke-width="0.25" stroke-linecap="round" stroke-linejoin="round" />
  <path
    d="M12.5705 17.5073L10.0291 21.3439L19.0708 21.7593L18.7776 12.0211L12.5705 17.5195V17.5073ZM30.5074 17.5195L24.2026 11.8989L23.9949 21.7593L33.0367 21.3439L30.5074 17.5195ZM13.0593 35.0532L18.5454 32.414L13.829 28.7484L13.0593 35.0532ZM24.5448 32.4017L29.9943 35.0532L29.2611 28.7362L24.5448 32.4017Z"
    fill="#E27625" stroke="#E27625" stroke-width="0.25" stroke-linecap="round" stroke-linejoin="round" />
  <path
    d="M29.9948 35.0533L24.5453 32.4141L24.9852 35.9575L24.9363 37.4603L29.9948 35.0533ZM13.0598 35.0533L18.1428 37.4603L18.1061 35.9575L18.546 32.4141L13.0598 35.0533Z"
    fill="#D5BFB2" stroke="#D5BFB2" stroke-width="0.25" stroke-linecap="round" stroke-linejoin="round" />
  <path
    d="M18.2282 26.3903L13.7073 25.0707L16.9086 23.6045L18.2404 26.3903H18.2282ZM24.8384 26.3903L26.1825 23.5923L29.396 25.0585L24.8384 26.4026V26.3903Z"
    fill="#233447" stroke="#233447" stroke-width="0.25" stroke-linecap="round" stroke-linejoin="round" />
  <path
    d="M13.0594 35.053L13.8537 28.5283L8.80737 28.6749L13.0594 35.053ZM29.2247 28.5283L29.9944 35.053L34.2709 28.6749L29.2247 28.5283ZM33.0491 21.3438L24.0073 21.7592L24.8382 26.4023L26.1822 23.592L29.3957 25.0582L33.0491 21.3438ZM13.707 25.0704L16.9083 23.6042L18.2401 26.39L19.0832 21.747L10.0415 21.3438L13.707 25.0704Z"
    fill="#CC6228" stroke="#CC6228" stroke-width="0.25" stroke-linecap="round" stroke-linejoin="round" />
  <path
    d="M10.0417 21.3438L13.8295 28.736L13.7073 25.0704L10.0417 21.3438ZM29.396 25.0704L29.2494 28.736L33.0372 21.3438L29.396 25.0704ZM19.0835 21.7592L18.2282 26.4023L19.3034 31.8762L19.5478 24.655L19.0835 21.7592ZM23.9954 21.7592L23.5555 24.6428L23.7755 31.8762L24.8385 26.39L23.9954 21.747V21.7592Z"
    fill="#E27525" stroke="#E27525" stroke-width="0.25" stroke-linecap="round" stroke-linejoin="round" />
  <path
    d="M24.8379 26.3902L23.7749 31.8763L24.5447 32.4139L29.2489 28.7484L29.3955 25.0706L24.8379 26.3902ZM13.7068 25.0706L13.829 28.7361L18.5454 32.4017L19.3029 31.8763L18.2399 26.3902L13.6946 25.0706H13.7068Z"
    fill="#F5841F" stroke="#F5841F" stroke-width="0.25" stroke-linecap="round" stroke-linejoin="round" />
  <path
    d="M24.9485 37.4605L24.9852 35.9576L24.5697 35.6155H18.5093L18.1061 35.9576L18.1428 37.4605L13.0598 35.0535L14.8437 36.5197L18.4482 39.0001H24.6186L28.2353 36.5075L29.9948 35.0535L24.9363 37.4605H24.9485Z"
    fill="#C0AC9D" stroke="#C0AC9D" stroke-width="0.25" stroke-linecap="round" stroke-linejoin="round" />
  <path
    d="M24.5452 32.4019L23.7754 31.8765H19.3034L18.5458 32.4141L18.106 35.9575L18.5092 35.6154H24.5696L24.985 35.9575L24.5452 32.4141V32.4019Z"
    fill="#161616" stroke="#161616" stroke-width="0.25" stroke-linecap="round" stroke-linejoin="round" />
  <path
    d="M40.7349 13.6463L42.0789 7.1093L40.0507 1L24.533 12.4855L30.5079 17.5073L38.9388 19.9633L40.796 17.8006L39.9896 17.2141L41.2725 16.0411L40.295 15.2835L41.578 14.3061L40.7227 13.6463H40.7349ZM1 7.09708L2.36848 13.6463L1.48874 14.2938L2.79613 15.2713L1.81865 16.0411L3.08938 17.2141L2.28295 17.8006L4.14018 19.9633L12.571 17.5196L18.5459 12.4733L3.02829 1L1 7.09708Z"
    fill="#763E1A" stroke="#763E1A" stroke-width="0.25" stroke-linecap="round" stroke-linejoin="round" />
  <path
    d="M38.9387 19.9633L30.5079 17.5196L33.0493 21.344L29.2616 28.7363L34.2712 28.6752H41.7612L38.9387 19.9633ZM12.571 17.5074L4.14011 19.9633L1.32983 28.6752H8.81984L13.8295 28.7363L10.0417 21.344L12.5832 17.5074H12.571ZM23.9953 21.7594L24.5452 12.4733L26.9889 5.87524H16.0899L18.5336 12.4733L19.0835 21.7594L19.2912 24.6675V31.8764H23.7754L23.7998 24.6675L23.9953 21.7594Z"
    fill="#F5841F" stroke="#F5841F" stroke-width="0.25" stroke-linecap="round" stroke-linejoin="round" />
</svg>