<svg width="164" height="44" viewBox="0 0 164 44" fill="none" xmlns="http://www.w3.org/2000/svg">
  <path
    d="M82.0969 9.19117V34.8577C82.0969 35.0533 81.9532 35.2489 81.7134 35.2489H79.0758C77.8771 35.2489 76.7263 34.6133 76.0548 33.5868L64.1624 14.8623L64.5461 24.2V34.9068C64.5461 35.1024 64.4022 35.2977 64.1624 35.2977H60.7098C60.5179 35.2977 60.3263 35.1512 60.3263 34.9068V9.19117C60.3263 8.99561 60.47 8.80005 60.7098 8.80005H63.2993C64.4982 8.80005 65.649 9.43561 66.3203 10.4623L78.2127 29.1377L77.8292 19.8V9.19117C77.8292 8.99561 77.9729 8.80005 78.2127 8.80005H81.6653C81.9532 8.80005 82.0969 8.94672 82.0969 9.19117Z"
    fill="black" />
  <path
    d="M117.484 35.2001H113.84C113.6 35.2001 113.408 34.9556 113.504 34.7112L123.191 9.14228C123.287 8.94672 123.479 8.80005 123.67 8.80005H128.274C128.514 8.80005 128.705 8.94672 128.754 9.14228L138.488 34.7112C138.584 34.9556 138.392 35.2001 138.152 35.2001H134.508C134.364 35.2001 134.22 35.1024 134.172 34.9556L126.356 13.9334C126.26 13.64 125.78 13.64 125.684 13.9334L117.868 34.9556C117.772 35.1024 117.628 35.2001 117.484 35.2001Z"
    fill="black" />
  <path
    d="M163.904 34.6133L156.615 25.1289C160.739 24.3468 163.137 21.5112 163.137 17.16C163.137 12.1734 159.972 8.80005 154.314 8.80005H144.148C143.86 8.80005 143.62 9.04449 143.62 9.33782C143.62 11.2934 145.155 12.8578 147.073 12.8578H153.93C157.335 12.8578 158.965 14.6178 158.965 17.2089C158.965 19.8 157.383 21.56 153.93 21.56H144.243C143.956 21.56 143.716 21.8045 143.716 22.0977V34.8089C143.716 35.0045 143.86 35.2001 144.1 35.2001H147.552C147.744 35.2001 147.936 35.0533 147.936 34.8089V25.3733H151.916L158.246 33.7824C158.917 34.7112 159.972 35.2001 161.123 35.2001H163.76C163.952 35.2001 164.096 34.8577 163.904 34.6133Z"
    fill="black" />
  <path
    d="M106.552 8.80005H90.4874C90.1996 8.80005 90.0077 8.99561 90.0077 9.28893C90.0077 11.2445 91.5903 12.8578 93.5085 12.8578H106.552C106.744 12.8578 106.935 12.7112 106.935 12.4667V9.14228C106.887 8.94672 106.744 8.80005 106.552 8.80005ZM106.552 31.1424H94.5635C94.3716 31.1424 94.1798 30.9956 94.1798 30.7512V24.1512C94.1798 23.9556 94.3235 23.76 94.5635 23.76H105.641C105.832 23.76 106.024 23.6133 106.024 23.3689V20.0445C106.024 19.8489 105.88 19.6534 105.641 19.6534H90.5353C90.2477 19.6534 90.0077 19.8978 90.0077 20.1912V34.6133C90.0077 34.9068 90.2477 35.1512 90.5353 35.1512H106.552C106.744 35.1512 106.935 35.0045 106.935 34.76V31.4356C106.887 31.2889 106.744 31.1424 106.552 31.1424Z"
    fill="black" />
  <path
    d="M34.6221 2.24888L25.6071 15.8889C24.9837 16.8178 26.1824 17.9422 27.0455 17.16L35.9169 9.28888C36.1568 9.09333 36.4924 9.24 36.4924 9.58223V34.1733C36.4924 34.5156 36.0608 34.6623 35.869 34.4177L9.01521 1.66222C8.15205 0.586667 6.90526 0 5.51463 0H4.55555C2.06199 0 0 2.10222 0 4.69333V39.3067C0 41.8977 2.06199 44 4.6035 44C6.18597 44 7.67252 43.1688 8.53568 41.7512L17.5509 28.1112C18.1743 27.1823 16.9754 26.0577 16.1123 26.84L7.24095 34.6623C7.00116 34.8577 6.6655 34.7112 6.6655 34.3688V9.82667C6.6655 9.48444 7.09708 9.33777 7.28889 9.58223L34.1426 42.3377C35.0058 43.4133 36.3005 44 37.6432 44H38.6024C41.1439 44 43.2058 41.8977 43.2058 39.3067V4.69333C43.1579 2.10222 41.0958 0 38.5545 0C36.9719 0 35.4853 0.831112 34.6221 2.24888Z"
    fill="black" />
</svg>
