<svg width="226" height="45" viewBox="0 0 226 45" fill="none" xmlns="http://www.w3.org/2000/svg">
  <g clip-path="url(#clip0_18_357)">
    <path d="M11.0007 27.389H0V29.6085H11.0007V27.389Z" fill="#3458D8" />
    <path
      d="M11.0007 24.6437V14.8444C11.0007 14.345 11.0987 13.8505 11.2891 13.3891C11.4795 12.9277 11.7586 12.5084 12.1104 12.1553C12.821 11.4421 13.7847 11.0414 14.7896 11.0414H15.7509C16.2486 11.0414 16.7413 11.1398 17.201 11.3309C17.6606 11.522 18.0783 11.8022 18.4302 12.1553C18.782 12.5084 19.0611 12.9277 19.2516 13.3891C19.442 13.8505 19.5399 14.345 19.5399 14.8444V24.6437H30.5406V14.0389C30.5406 10.3162 29.0675 6.74594 26.4452 4.11324C23.8229 1.48053 20.2662 0.000998132 16.5573 0H13.9872C10.2776 0.000332716 6.72011 1.47953 4.09709 4.11227C1.47408 6.74501 0.000331488 10.3157 0 14.0389V24.6437H11.0007Z"
      fill="#3458D8" />
    <path
      d="M30.0756 34.5722C30.2689 33.8443 30.4031 33.1021 30.4768 32.3526H18.8449C18.4949 32.849 18.031 33.2539 17.4927 33.5329C16.9543 33.812 16.3569 33.9571 15.7509 33.9561H14.7858C14.1806 33.9561 13.5841 33.8106 13.0465 33.5316C12.5088 33.2526 12.0456 32.8483 11.6957 32.3526H0.0687256C0.142667 33.102 0.276438 33.8442 0.46875 34.5722H30.0756Z"
      fill="#3458D8" />
    <path d="M30.5443 27.389H19.5437V29.6085H30.5443V27.389Z" fill="#3458D8" />
    <path
      d="M5.7179 42.2836C8.11433 44.0526 11.0124 45.0047 13.9872 45H16.5573C19.5321 45.0047 22.4301 44.0526 24.8265 42.2836H5.7179Z"
      fill="#3458D8" />
    <path
      d="M29.0304 37.3174H1.51379C1.91097 38.0995 2.38013 38.8426 2.91513 39.537H27.6267C28.163 38.843 28.633 38.0998 29.0304 37.3174Z"
      fill="#3458D8" />
    <path
      d="M55.8925 21.9122V19.6847C55.8925 14.1919 53.2809 11.8378 49.3887 11.8378C45.5216 11.8378 42.91 14.1919 42.91 19.6847V21.9122C42.91 27.405 45.5216 29.7591 49.3887 29.7591C53.2809 29.7591 55.8925 27.405 55.8925 21.9122ZM45.8229 19.6847C45.8229 15.9131 47.0785 14.3944 49.3887 14.3944C51.6989 14.3944 52.9796 15.9131 52.9796 19.6847V21.9122C52.9796 25.6838 51.6989 27.2025 49.3887 27.2025C47.0785 27.2025 45.8229 25.6838 45.8229 21.9122V19.6847ZM67.4758 18.5203C66.6974 17.28 65.5925 16.6472 63.9854 16.6472C62.5038 16.6472 61.65 17.28 61.1729 18.0141V16.875H58.5363V29.5313H61.2232V21.8869C61.2232 20.0644 62.1774 19.0519 63.5334 19.0519C64.3871 19.0519 64.9396 19.4569 65.3414 20.0391L67.4758 18.5203ZM76.049 17.761C75.3459 17.0269 74.3415 16.6472 73.0357 16.6472C69.9973 16.6472 68.0386 18.6722 68.0386 22.3172V24.0385C68.0386 27.3544 69.6959 29.7591 73.0357 29.7591C74.4168 29.7591 75.371 29.3541 76.049 28.6453V29.5313H78.7108V12.0656H76.049V17.761ZM73.3873 27.4303C71.4537 27.4303 70.7004 25.8863 70.7004 23.9119V22.4438C70.7004 20.2416 71.5793 19.0013 73.3873 19.0013C75.1199 19.0013 76.049 20.2163 76.049 22.2919V23.9119C76.049 25.8863 75.3961 27.4303 73.3873 27.4303ZM89.0454 26.19C88.5432 26.9747 87.9405 27.4303 86.459 27.4303C84.4752 27.4303 83.7219 25.8863 83.7219 23.9119V23.8613H91.2301V22.4691C91.2301 18.7228 89.5979 16.6472 86.1576 16.6472C82.8681 16.6472 81.0601 18.5963 81.0601 22.3172V24.0385C81.0601 27.405 82.9685 29.7591 86.5594 29.7591C88.7692 29.7591 90.1754 29.1516 91.0543 27.6075L89.0454 26.19ZM86.1576 19.0013C87.6894 19.0013 88.4428 19.9378 88.5432 21.7856H83.747C83.8725 20.0644 84.6008 19.0013 86.1576 19.0013ZM102.764 18.5203C101.985 17.28 100.88 16.6472 99.2733 16.6472C97.7918 16.6472 96.938 17.28 96.4609 18.0141V16.875H93.8242V29.5313H96.5111V21.8869C96.5111 20.0644 97.4653 19.0519 98.8213 19.0519C99.6751 19.0519 100.228 19.4569 100.629 20.0391L102.764 18.5203ZM103.952 25.5572C103.952 28.4681 105.283 29.5313 108.547 29.5313V27.1519C106.89 27.1519 106.639 26.2913 106.639 24.9244V12.0656H103.952V25.5572ZM109.733 16.875L114.53 29.6831C113.902 31.5816 113.199 31.86 111.441 31.86V34.3406C114.956 34.3406 115.886 33.2775 116.965 30.0375L121.385 16.875H118.623L115.76 25.785L112.571 16.875H109.733ZM125.836 26.0381H122.37V29.5313H125.836V26.0381ZM138.889 12.0656V24.0891L131.757 12.0656H129.246V29.5313H132.058V17.6597L139.115 29.5313H141.701V12.0656H138.889ZM152.51 26.19C152.007 26.9747 151.405 27.4303 149.923 27.4303C147.939 27.4303 147.186 25.8863 147.186 23.9119V23.8613H154.694V22.4691C154.694 18.7228 153.062 16.6472 149.622 16.6472C146.332 16.6472 144.524 18.5963 144.524 22.3172V24.0385C144.524 27.405 146.433 29.7591 150.024 29.7591C152.233 29.7591 153.64 29.1516 154.518 27.6075L152.51 26.19ZM149.622 19.0013C151.154 19.0013 151.907 19.9378 152.007 21.7856H147.211C147.337 20.0644 148.065 19.0013 149.622 19.0013ZM156.285 19.2038H157.892V25.5066C157.892 28.4935 158.971 29.5313 161.985 29.5313H163.215V27.1013H162.186C160.78 27.1013 160.553 26.4685 160.553 25.0003V19.2038H163.215V16.875H160.553V14.0906H157.892V16.875H156.285V19.2038ZM172.989 20.925L176.053 29.5313H178.262L181.828 16.875H179.016L176.906 24.8991L173.918 16.875H171.859L169.047 24.8485L166.937 16.875H164.15L167.691 29.5313H169.926L172.989 20.925ZM193.452 22.3931C193.452 18.6722 191.518 16.6472 188.128 16.6472C184.738 16.6472 182.78 18.6722 182.78 22.3931V23.9878C182.78 27.481 184.613 29.7591 188.128 29.7591C191.82 29.7591 193.452 27.3544 193.452 23.9878V22.3931ZM188.128 27.4303C186.094 27.4303 185.441 25.8863 185.441 23.9119V22.4438C185.441 20.2669 186.32 19.0013 188.128 19.0013C189.911 19.0013 190.79 20.2416 190.79 22.4438V23.9119C190.79 25.8863 190.037 27.4303 188.128 27.4303ZM204.728 18.5203C203.95 17.28 202.845 16.6472 201.238 16.6472C199.756 16.6472 198.902 17.28 198.425 18.0141V16.875H195.789V29.5313H198.475V21.8869C198.475 20.0644 199.43 19.0519 200.786 19.0519C201.639 19.0519 202.192 19.4569 202.594 20.0391L204.728 18.5203ZM212.797 16.875L208.604 21.811V12.0656H205.917V29.5313H208.604V25.38L209.457 24.4181L213.601 29.5313H216.84L211.29 22.3172L216.087 16.875H212.797Z"
      fill="#3458D8" />
  </g>
  <defs>
    <clipPath id="clip0_18_357">
      <rect width="226" height="45" fill="white" />
    </clipPath>
  </defs>
</svg>
