<svg width="26" height="28" viewBox="0 0 26 28" fill="none" xmlns="http://www.w3.org/2000/svg">
  <path
    d="M23.5736 5.66428L14.5456 0.483912C13.9912 0.166654 13.3658 0 12.7298 0C12.0938 0 11.4684 0.166654 10.914 0.483912L1.87326 5.66428C1.31008 5.98409 0.840824 6.4509 0.513814 7.01663C0.186804 7.58236 0.0138493 8.22657 0.0127703 8.88293V19.13C0.0101612 19.7868 0.18218 20.4321 0.5106 20.9975C0.839144 21.5654 1.30922 22.0348 1.87326 22.3584L5.86547 24.6319V14.0113C5.86553 12.6395 6.26898 11.2991 7.02389 10.1626C7.7815 9.02076 8.85408 8.13256 10.1066 7.60977C11.3625 7.08582 12.7419 6.94902 14.0735 7.21637C15.4051 7.48372 16.6302 8.14345 17.5964 9.11354C18.313 9.83557 18.8621 10.7114 19.2037 11.677C19.5452 12.6426 19.6706 13.6736 19.5706 14.6949C19.4706 15.7161 19.1477 16.7017 18.6257 17.5797C18.1036 18.4577 17.3954 19.206 16.5529 19.7698C15.4168 20.5333 14.0848 20.9389 12.7234 20.9358H8.294C8.25216 20.9365 8.21173 20.9514 8.17911 20.9781C8.14797 21.0056 8.12759 21.0437 8.12167 21.0852C8.11441 21.1267 8.12236 21.1695 8.14401 21.2054C8.16664 21.2407 8.20041 21.267 8.23974 21.2801C9.60103 21.7721 10.7801 22.6794 11.6161 23.8784C12.4474 25.0691 12.8936 26.4938 12.8926 27.9545V28.013C13.4519 27.9844 13.9975 27.8267 14.4882 27.5518L23.5289 22.3714C24.092 22.0477 24.5611 21.5782 24.8884 21.0105C25.2163 20.4447 25.3893 19.7999 25.3894 19.143V8.88618C25.3913 8.23528 25.2239 7.59546 24.9043 7.03165C24.5859 6.46519 24.1271 5.99369 23.5736 5.66428Z"
    fill="url(#paint0_linear_2_24)" />
  <defs>
    <linearGradient id="paint0_linear_2_24" x1="3.44972" y1="2.63401" x2="21.4115" y2="23.9478"
      gradientUnits="userSpaceOnUse">
      <stop stop-color="#D79243" />
      <stop offset="0.36" stop-color="#E18773" />
      <stop offset="0.64" stop-color="#C849C2" />
      <stop offset="1" stop-color="#531BE0" />
    </linearGradient>
  </defs>
</svg>