<svg width="58" height="74" viewBox="0 0 58 74" fill="none" xmlns="http://www.w3.org/2000/svg">
  <path fill-rule="evenodd" clip-rule="evenodd"
    d="M24.8572 41.111C15.7052 41.111 8.28571 33.7489 8.28571 24.6666C8.28571 15.5843 15.7052 8.22219 24.8572 8.22219C34.0096 8.22219 41.4286 15.5843 41.4286 24.6666C41.4286 33.7489 34.0096 41.111 24.8572 41.111ZM24.8572 0C38.5853 0 49.7143 11.0437 49.7143 24.6666C49.7143 38.2895 38.5853 49.3332 24.8572 49.3332C11.129 49.3332 0 38.2895 0 24.6666C0 11.0437 11.129 0 24.8572 0ZM48.5011 50.5371C50.119 52.1427 50.119 54.7454 48.5011 56.3509L31.9291 72.7958C30.3111 74.4014 27.6883 74.4014 26.0704 72.7958C24.4524 71.1902 24.4524 68.5876 26.0704 66.982L42.6423 50.5371C44.2603 48.9315 46.8831 48.9315 48.5011 50.5371ZM58 4.1111C58 6.38192 56.1455 8.22219 53.8577 8.22219C51.5693 8.22219 49.7148 6.38192 49.7148 4.1111C49.7148 1.84027 51.5693 0 53.8577 0C56.1455 0 58 1.84027 58 4.1111Z"
    fill="#4E4E4E" />
</svg>