<svg width="18" height="16" viewBox="0 0 18 16" fill="none" xmlns="http://www.w3.org/2000/svg">
  <path
    d="M14.6667 0H3.33333C1.5 0 0 1.5 0 3.33333V12.6667C0 14.5 1.5 16 3.33333 16H14.6667C16.5 16 18 14.5 18 12.6667V3.33333C18 1.5 16.5 0 14.6667 0ZM16.6667 10H10.6667C9.56667 10 8.66667 9.1 8.66667 8C8.66667 6.9 9.56667 6 10.6667 6H16.6667V10ZM10.6667 4.66667C8.83333 4.66667 7.33333 6.16667 7.33333 8C7.33333 9.83333 8.83333 11.3333 10.6667 11.3333H16.6667V12.6667C16.6667 13.7667 15.7667 14.6667 14.6667 14.6667H3.33333C2.23333 14.6667 1.33333 13.7667 1.33333 12.6667V3.33333C1.33333 2.23333 2.23333 1.33333 3.33333 1.33333H14.6667C15.7667 1.33333 16.6667 2.23333 16.6667 3.33333V4.66667H10.6667Z"
    fill="white" />
</svg>