<svg width="47" height="48" viewBox="0 0 47 48" fill="none" xmlns="http://www.w3.org/2000/svg">
  <path
    d="M46.5804 42.9545C46.5804 43.6364 46.4405 44.3182 46.1607 44.8636C45.881 45.4091 45.6012 45.9545 45.1815 46.5C44.7619 46.9091 44.2024 47.3182 43.6429 47.5909C43.0833 47.8636 42.3839 48 41.6845 48H5.1756C4.47619 48 3.77679 47.8636 3.21726 47.5909C2.51786 47.3182 1.95833 47.0455 1.53869 46.5C1.11905 46.0909 0.699405 45.5455 0.419643 44.8636C0.139881 44.3182 -6.14711e-08 43.6364 0 42.9545V15.8182C0 14.4545 0.559524 13.2273 1.53869 12.2727C2.51786 11.3182 3.77679 10.7727 5.1756 10.7727H41.8244C43.2232 10.7727 44.4821 11.3182 45.4613 12.2727C46.4405 13.2273 47 14.4545 47 15.8182V23.1818H33.9911C32.5923 23.1818 31.3333 23.5909 30.3542 24.5455C29.375 25.5 28.8155 26.5909 28.8155 28.0909C28.8155 29.0455 29.0952 29.8636 29.375 30.5455C29.6548 31.2273 30.2143 31.7727 30.9137 32.1818C31.6131 32.7273 32.5923 33 33.8512 33H46.5804V42.9545ZM39.0268 8.31818H13.7083C15.6667 7.36364 17.625 6.27273 19.4435 5.31818L24.0595 2.86364C25.5982 2.04545 26.7173 1.5 27.6964 0.954545C28.9554 0.272727 30.2143 0 31.1935 0C32.1726 0 33.1518 0.272727 33.8512 0.545455C34.6905 0.954546 35.3899 1.5 35.9494 2.18182L39.0268 8.31818ZM31.4732 28.0909C31.4732 27.4091 31.753 26.8636 32.1726 26.3182C32.5923 25.9091 33.2917 25.6364 33.9911 25.6364C34.6905 25.6364 35.25 25.9091 35.8095 26.3182C36.2292 26.7273 36.5089 27.4091 36.5089 28.0909C36.5089 28.7727 36.2292 29.3182 35.8095 29.8636C35.3899 30.4091 34.6905 30.5455 33.9911 30.5455C33.2917 30.5455 32.7321 30.2727 32.1726 29.8636C31.753 29.4545 31.4732 28.9091 31.4732 28.0909Z"
    fill="white" />
</svg>