<?xml version="1.0" standalone="no"?><!DOCTYPE svg PUBLIC "-//W3C//DTD SVG 1.1//EN" "http://www.w3.org/Graphics/SVG/1.1/DTD/svg11.dtd"><svg t="1640062717890" class="icon" viewBox="0 0 5171 1024" version="1.1" xmlns="http://www.w3.org/2000/svg" p-id="1190" xmlns:xlink="http://www.w3.org/1999/xlink" width="100.99609375" height="20"><defs><style type="text/css"></style></defs><path d="M2426.292067 252.346456a8.430282 8.430282 0 0 1 8.430282 8.430283v348.451676a224.807533 224.807533 0 0 1-239.982042 246.726268 224.807533 224.807533 0 0 1-239.420023-246.726268V259.090682a7.868264 7.868264 0 0 1 8.430283-8.430282h80.930712a8.430282 8.430282 0 0 1 8.430282 8.430282v342.269469c0 115.213861 60.136015 161.299405 142.190765 161.299406s141.628746-46.085544 141.628746-161.299406V259.090682a8.430282 8.430282 0 0 1 8.430283-8.430282zM3848.199714 549.0924a307.986321 307.986321 0 0 1-615.410622 0 307.986321 307.986321 0 0 1 615.410622 0z m-518.743383 0a210.757062 210.757062 0 1 0 420.952106 0 210.757062 210.757062 0 1 0-420.952106 0zM4690.103926 845.838344h-84.302825a8.430282 8.430282 0 0 1-7.868263-8.992301l221.997439-577.755361a13.488452 13.488452 0 0 1 11.802395-8.430282h105.097522a11.802395 11.802395 0 0 1 11.240377 8.430282l221.997439 573.25921a7.868264 7.868264 0 0 1-5.05817 10.678358h-86.5509a8.992301 8.992301 0 0 1-7.868264-5.05817l-178.721989-466.475631a8.430282 8.430282 0 0 0-11.240376-4.496151 11.240377 11.240377 0 0 0-4.496151 4.496151l-178.721989 472.09582a10.116339 10.116339 0 0 1-7.306245 2.248075zM1330.355342 845.838344h-84.302825a8.430282 8.430282 0 0 1-7.868264-8.992301l222.559458-577.755361a11.802395 11.802395 0 0 1 11.240377-8.430282h105.097522a13.488452 13.488452 0 0 1 11.802395 8.430282l219.187345 575.507285a7.868264 7.868264 0 0 1-5.058169 10.678358h-84.302825a8.992301 8.992301 0 0 1-7.868264-5.058169l-178.721989-472.09582a8.430282 8.430282 0 0 0-11.240377-3.934132 6.744226 6.744226 0 0 0-3.934131 3.934132l-179.284008 472.09582a8.430282 8.430282 0 0 1-7.306245 5.620188zM4443.377659 832.349892l-168.60565-212.443119a168.60565 168.60565 0 0 0 148.93499-178.721989c0-112.403767-73.062448-188.276309-201.764761-188.276309h-229.865702a12.364414 12.364414 0 0 0-12.364415 12.364414 79.244655 79.244655 0 0 0 79.244656 79.244656h155.117198c78.120618 0 112.403767 39.903337 112.403766 97.229258s-36.531224 98.353296-112.403766 98.353296h-224.807534a12.364414 12.364414 0 0 0-12.364414 12.364414v284.943548a8.430282 8.430282 0 0 0 8.430283 8.430283h82.054749a8.430282 8.430282 0 0 0 8.430283-8.430283v-213.005137h92.733107l144.43884 188.838328a81.492731 81.492731 0 0 0 65.194185 32.597092h60.136015a8.992301 8.992301 0 0 0 7.868264-9.55432zM3100.714666 832.349892l-168.60565-212.443119a168.60565 168.60565 0 0 0 148.934991-178.721989c0-112.403767-72.500429-188.276309-201.764761-188.276309h-228.179646a12.364414 12.364414 0 0 0-12.364415 12.364414 79.244655 79.244655 0 0 0 78.682637 79.244656h152.869123c77.558599 0 115.213861 39.903337 115.213861 97.229258s-36.531224 98.353296-115.213861 98.353296h-219.187345a12.364414 12.364414 0 0 0-12.364415 12.364414v284.943548a8.430282 8.430282 0 0 0 8.430283 8.430283h79.244655a8.430282 8.430282 0 0 0 8.430283-8.430283v-213.005137h91.047051l144.43884 188.838328a84.864844 84.864844 0 0 0 65.194185 32.597092h60.698034a8.430282 8.430282 0 0 0 7.306244-9.55432 6.182207 6.182207 0 0 0-2.810094-3.934132zM512.055921 78.120618a112.403767 112.403767 0 0 1 101.725409 62.946109l319.788716 640.139451a112.403767 112.403767 0 0 1-101.725409 164.671518H191.705186A112.403767 112.403767 0 0 1 89.979777 781.206178L410.330512 141.066727a112.403767 112.403767 0 0 1 101.725409-62.946109m0-78.120618a192.77246 192.77246 0 0 0-171.977763 106.221559L20.289442 746.36101a191.648422 191.648422 0 0 0 85.988881 257.404626 187.152271 187.152271 0 0 0 85.426863 20.232678H831.844637a192.210441 192.210441 0 0 0 192.210441-192.210441 187.152271 187.152271 0 0 0-20.232678-85.426863L684.033684 106.221559A192.77246 192.77246 0 0 0 512.055921 0z" fill="#FFFFFF" p-id="1191"></path></svg>