<svg width="116" height="36" viewBox="0 0 116 36" fill="none" xmlns="http://www.w3.org/2000/svg">
<g clip-path="url(#clip0_29_300)">
<path d="M30.7251 7.28268L18.9583 0.622203C18.2357 0.2143 17.4206 3.05176e-05 16.5916 3.05176e-05C15.7626 3.05176e-05 14.9476 0.2143 14.225 0.622203L2.44155 7.28268C1.70751 7.69386 1.0959 8.29404 0.669686 9.02141C0.24347 9.74878 0.0180459 10.577 0.0166397 11.4209V24.5958C0.013239 25.4402 0.237443 26.2699 0.665497 26.9969C1.09371 27.7269 1.70639 28.3305 2.44155 28.7466L7.64488 31.6697V18.0146C7.64496 16.2508 8.1708 14.5274 9.15473 13.0662C10.1422 11.5982 11.5401 10.4562 13.1727 9.78402C14.8095 9.11037 16.6074 8.93448 18.343 9.27822C20.0786 9.62196 21.6753 10.4702 22.9346 11.7174C23.8686 12.6458 24.5844 13.7718 25.0295 15.0133C25.4747 16.2548 25.638 17.5804 25.5077 18.8934C25.3774 20.2064 24.9566 21.4736 24.2761 22.6025C23.5957 23.7314 22.6727 24.6934 21.5745 25.4184C20.0938 26.4 18.3577 26.9215 16.5833 26.9175H10.8101C10.7556 26.9184 10.7029 26.9375 10.6604 26.9718C10.6198 27.0073 10.5933 27.0562 10.5855 27.1096C10.5761 27.163 10.5864 27.2179 10.6147 27.2641C10.6442 27.3095 10.6882 27.3433 10.7394 27.3602C12.5137 27.9927 14.0504 29.1593 15.14 30.7009C16.2236 32.2317 16.8051 34.0635 16.8038 35.9415V36.0167C17.5328 35.98 18.244 35.7772 18.8834 35.4237L30.6669 28.7633C31.4009 28.3471 32.0122 27.7435 32.4388 27.0136C32.8662 26.2861 33.0917 25.457 33.0918 24.6125V11.4251C33.0942 10.5882 32.8761 9.76562 32.4595 9.04072C32.0446 8.31242 31.4465 7.7062 30.7251 7.28268V7.28268Z" fill="url(#paint0_linear_29_300)"/>
<path d="M60.3686 21.2801C58.6061 21.8992 56.7539 22.2223 54.8866 22.2364H54.1504C53.9716 22.2364 53.7969 22.2364 53.6305 22.2155C53.4641 22.1946 53.2977 22.2155 53.1439 22.2155C52.99 22.2155 52.7903 22.2155 52.6198 22.2155C52.4492 22.2155 52.2787 22.1946 52.0999 22.1946V30.4002H45.7485V5.57893H54.5372C54.8741 5.57893 55.211 5.57893 55.5438 5.61651C56.8594 5.66578 58.1628 5.88902 59.4203 6.28047C60.6912 6.69222 61.7928 7.51068 62.5565 8.6106C63.0002 9.19507 63.3523 9.84427 63.6005 10.5357C63.8553 11.2346 64.0379 11.9581 64.1453 12.6946C64.1703 12.9034 64.1869 13.1122 64.2036 13.3585C64.2202 13.6049 64.2036 13.8095 64.2036 14.0183C64.2024 14.5181 64.1704 15.0174 64.1079 15.5133C64.0475 15.9934 63.9502 16.4681 63.8167 16.9331C63.2344 19.2242 62.0851 20.6732 60.3686 21.2801ZM52.4284 16.7702C52.55 16.7838 52.6722 16.7907 52.7945 16.7911C52.9039 16.7851 53.0136 16.7851 53.1231 16.7911C53.2339 16.797 53.345 16.797 53.4558 16.7911H53.7636C54.6759 16.7752 55.5767 16.5838 56.4173 16.2273C57.2491 15.8766 57.6651 15.0957 57.6651 13.8763V13.6425C57.6651 12.554 57.2963 11.8344 56.5587 11.4836C55.7985 11.1268 54.9761 10.9225 54.1379 10.8823C53.9853 10.8573 53.8309 10.8447 53.6762 10.8447H52.0874V16.7159C52.202 16.7277 52.3158 16.7458 52.4284 16.7702V16.7702Z" fill="white"/>
<path d="M67.3979 13.2917H71.0914C71.611 13.2917 72.1093 13.4989 72.4767 13.8678C72.8441 14.2366 73.0505 14.7369 73.0505 15.2586V17.2713C73.3545 16.5313 73.759 15.8371 74.2525 15.2084C74.7603 14.572 75.3773 14.0318 76.0743 13.6133C76.4973 13.3352 76.9708 13.1436 77.4677 13.0495C77.9536 12.9616 78.4464 12.9169 78.9401 12.9159C79.0691 12.9159 79.2022 12.9159 79.3561 12.9159C79.5039 12.9315 79.6525 12.9385 79.8011 12.9368C79.9592 12.9368 80.1047 12.9368 80.2503 12.9577C80.3959 12.9785 80.5248 12.9577 80.6662 12.9577L80.0465 18.4405C79.9852 18.4138 79.921 18.3942 79.8552 18.3821C79.7901 18.377 79.7248 18.377 79.6597 18.3821C79.3402 18.3053 79.0166 18.2467 78.6906 18.2067C78.4146 18.1709 78.1369 18.1513 77.8587 18.1482C77.2657 18.1233 76.674 18.2217 76.1207 18.4372C75.5674 18.6528 75.0645 18.981 74.6435 19.401C73.8117 20.2362 73.3957 21.5126 73.3957 23.2302V30.3292H67.3979V13.2917Z" fill="white"/>
<path d="M88.7979 22.9755C88.8323 24.0145 89.1693 25.0205 89.767 25.8694C90.3327 26.6336 91.2519 27.0428 92.5163 27.0971H92.6328C92.6328 27.1221 92.6328 27.1347 92.6328 27.1347H92.691C93.4249 27.1449 94.1497 26.9712 94.7998 26.6294C95.4574 26.2678 96.0007 25.7281 96.3679 25.0718L100.902 26.9008C100.252 28.2772 99.1315 29.3737 97.7446 29.991C96.317 30.6524 94.7665 31.0039 93.1943 31.0224H92.7284C91.281 30.9979 89.8502 30.7078 88.5067 30.1663C87.2261 29.6873 86.0911 28.883 85.2125 27.832C84.5854 27.0964 84.0825 26.2628 83.7235 25.3641C83.3548 24.467 83.1382 23.5143 83.0829 22.5454V22.1278C83.0775 22.0374 83.0775 21.9468 83.0829 21.8564C83.0963 21.751 83.1157 21.6464 83.1412 21.5432C83.1407 21.4523 83.1477 21.3615 83.1619 21.2718C83.1673 21.1814 83.1673 21.0907 83.1619 21.0003C83.2522 19.8251 83.5807 18.6807 84.1271 17.6373C84.6735 16.594 85.4264 15.6737 86.3397 14.9328C88.0952 13.4806 90.3041 12.6956 92.5787 12.7155C93.0643 12.7151 93.5493 12.7486 94.0303 12.8157C94.5198 12.8807 95.0046 12.9769 95.4819 13.1038C97.911 13.8054 99.5387 15.0693 100.365 16.8955C101.226 18.8083 101.69 20.8769 101.729 22.9755H88.7979ZM90.0831 17.2713C89.5195 17.9381 89.1394 18.7415 88.9809 19.6014H95.8355C95.7306 18.7497 95.3575 17.9538 94.7707 17.3298C94.464 17.0202 94.098 16.7763 93.6948 16.6126C93.2917 16.449 92.8596 16.3691 92.4248 16.3777C91.9932 16.3464 91.56 16.4101 91.1555 16.5645C90.751 16.7188 90.385 16.9601 90.0831 17.2713V17.2713Z" fill="white"/>
<path d="M107.515 17.4926H105.019V13.2917H107.515V8.15961H113.405V13.2917H116V17.4926H113.405V30.3626H107.515V17.4926Z" fill="white"/>
</g>
<defs>
<linearGradient id="paint0_linear_29_300" x1="4.49626" y1="3.38661" x2="27.5346" y2="31.0998" gradientUnits="userSpaceOnUse">
<stop stop-color="#D79243"/>
<stop offset="0.36" stop-color="#E18773"/>
<stop offset="0.64" stop-color="#C849C2"/>
<stop offset="1" stop-color="#531BE0"/>
</linearGradient>
<clipPath id="clip0_29_300">
<rect width="116" height="36" fill="white"/>
</clipPath>
</defs>
</svg>
