<svg id="图层_1" data-name="图层 1" xmlns="http://www.w3.org/2000/svg" xmlns:xlink="http://www.w3.org/1999/xlink" viewBox="0 0 120.53 36.87"><defs><style>.cls-1{fill:url(#未命名的渐变_31);}.cls-2{fill:#fff;}</style><linearGradient id="未命名的渐变_31" x1="18.15" y1="3.48" x2="18.94" y2="38.43" gradientUnits="userSpaceOnUse"><stop offset="0.02" stop-color="#00f1fb"/><stop offset="0.02" stop-color="#04effa"/><stop offset="0.15" stop-color="#38d8ec"/><stop offset="0.26" stop-color="#62c5e1"/><stop offset="0.36" stop-color="#7fb8d9"/><stop offset="0.45" stop-color="#92b0d5"/><stop offset="0.51" stop-color="#98add3"/><stop offset="1" stop-color="#cc3ed9"/></linearGradient></defs><path class="cls-1" d="M33,9.34l-12-6.82a4.87,4.87,0,0,0-4.82,0l-12,6.82a4.87,4.87,0,0,0-2.47,4.24V27.07a4.88,4.88,0,0,0,2.47,4.25l5.3,3V20.56h0v-.23a9.12,9.12,0,1,1,9.12,9.12H12.72a.23.23,0,0,0-.07.45,9.32,9.32,0,0,1,6.18,8.77s0,.06,0,.08a4.85,4.85,0,0,0,2.12-.61l12-6.82a4.9,4.9,0,0,0,2.47-4.25V13.58A4.89,4.89,0,0,0,33,9.34Z" transform="translate(-1.64 -1.88)"/><path class="cls-2" d="M44.41,10.91H57.48a13,13,0,0,1,3,.33,6.42,6.42,0,0,1,2.38,1.07,5,5,0,0,1,1.55,2,7.27,7.27,0,0,1,.56,3,6.86,6.86,0,0,1-.53,2.84A4.82,4.82,0,0,1,63,22a5.68,5.68,0,0,1-2.17,1,10.5,10.5,0,0,1-2.69.32H52.12v5.89H44.41Zm7.71,8.58H53.7A5.65,5.65,0,0,0,56.59,19a2.05,2.05,0,0,0,.84-1.88,2.19,2.19,0,0,0-.65-1.72,3.48,3.48,0,0,0-2.32-.59H52.12Z" transform="translate(-1.64 -1.88)"/><path class="cls-2" d="M69.92,21.24c0-1,0-1.87,0-2.69a16.09,16.09,0,0,0-.14-2.05h7.16l.17,3.25h.05a6.46,6.46,0,0,1,.92-1.88,4,4,0,0,1,1.24-1.11,5.13,5.13,0,0,1,1.63-.54,16.76,16.76,0,0,1,2-.2v4.92H81.6a6.41,6.41,0,0,0-2,.27,3.2,3.2,0,0,0-1.3.76,2.69,2.69,0,0,0-.69,1.19,5.57,5.57,0,0,0-.21,1.59v4.49H69.92Z" transform="translate(-1.64 -1.88)"/><path class="cls-2" d="M93.58,23.89a3.64,3.64,0,0,0,.64,2.38,2.34,2.34,0,0,0,1.92.76,2.38,2.38,0,0,0,1.59-.43,2,2,0,0,0,.65-1h7.31a3.08,3.08,0,0,1-.63,1.56,4.79,4.79,0,0,1-1.69,1.32,11.88,11.88,0,0,1-2.88.93,21.41,21.41,0,0,1-4.22.35,19.63,19.63,0,0,1-4.07-.38A9.68,9.68,0,0,1,89,28.15,5.68,5.68,0,0,1,87,26,6.25,6.25,0,0,1,86.27,23,6.34,6.34,0,0,1,87,19.77a6,6,0,0,1,2-2.16,9.35,9.35,0,0,1,3.11-1.21A18.46,18.46,0,0,1,96.07,16a19.49,19.49,0,0,1,3.59.33,9.4,9.4,0,0,1,3.14,1.15,6.21,6.21,0,0,1,3.07,5.7v.69Zm5-2.44a3.07,3.07,0,0,0-.6-2,2.28,2.28,0,0,0-1.89-.75,2.3,2.3,0,0,0-1.85.73,2.94,2.94,0,0,0-.64,2Z" transform="translate(-1.64 -1.88)"/><path class="cls-2" d="M118.33,12V16.5h3.76v3.55h-3.76v3.71a2.19,2.19,0,0,0,.6,1.72,2.77,2.77,0,0,0,1.89.54,4.7,4.7,0,0,0,.62,0,5.47,5.47,0,0,0,.73-.14v3.4l-.93.17c-.38.06-.81.11-1.27.15l-1.45.11c-.5,0-1,0-1.43,0a14.39,14.39,0,0,1-3-.25,4.25,4.25,0,0,1-1.89-.86,3.23,3.23,0,0,1-1-1.61,8.93,8.93,0,0,1-.3-2.51V20.05h-2.1V16.5h2V14.26Z" transform="translate(-1.64 -1.88)"/></svg>